<svg width="232" height="232" viewBox="0 0 232 232" fill="none" xmlns="http://www.w3.org/2000/svg">
<path d="M98.1709 34.7178C98.6244 34.3745 99.2252 33.8701 99.8408 34.083C100.931 34.4604 100.965 37.2785 101.125 38.2373C101.519 40.5965 101.814 42.9663 102.199 45.3262C102.472 46.9966 102.59 48.3138 103.756 49.6221C104.196 49.0137 104.58 48.6509 105.26 48.333C105.366 50.813 105.038 52.4647 104.101 54.7773C103.82 55.4706 103.606 56.548 102.868 56.9082C102.12 57.2733 101.3 56.5789 100.752 56.1377C98.9387 54.6774 98.7317 51.7786 99.2451 49.6221C98.6088 49.6397 98.48 49.5376 98.1709 48.9775C96.6763 50.2524 95.0157 51.3659 93.4453 52.5488C92.0168 53.6248 90.6393 54.8158 89.1484 55.8037C88.6593 56.1279 87.9043 56.6284 87.3086 56.2656C85.8218 55.3596 87.7431 52.3268 88.2363 51.3408C89.3552 49.1033 90.9746 47.2664 92.2012 45.1113C92.7369 44.1702 92.7741 43.0822 93.21 42.1035C93.9119 40.528 95.0368 39.1898 95.7119 37.5928C96.2582 36.3007 97.0592 35.559 98.1709 34.7178ZM79.6973 34.4277C81.1657 34.5498 82.2595 35.9585 82.1631 37.3779C82.0028 39.7388 80.9112 42.1409 79.9121 44.252H79.4824C78.682 42.3294 77.4009 40.621 76.6895 38.666C74.8471 39.3046 73.5363 40.5315 72.1787 41.8887C70.0888 43.9779 68.3365 46.1573 67.332 48.9775C66.8438 50.3486 66.1303 53.4853 67.8945 54.2891C68.8949 54.7447 70.2177 53.7521 71.1045 53.3652C72.8881 52.5872 74.6272 51.8189 76.4746 51.1973C77.4456 50.8703 78.2365 50.5038 79.2676 50.6963C78.9619 52.2109 77.6563 53.1869 76.4746 54.082C73.4394 56.381 69.5481 57.5868 65.9492 55.8984C65.0485 55.4759 64.0828 54.9971 63.5303 54.1299C62.6034 52.6745 63.3594 49.8968 63.7314 48.333C63.9641 47.3549 64.4788 46.4948 64.7637 45.541C64.977 44.827 64.8103 44.0744 65.1582 43.3926C65.6694 42.3903 66.6685 41.5983 67.4521 40.8145C68.9236 39.3428 70.3717 37.7445 72.1787 36.6758C72.6796 36.3796 73.27 35.9642 73.8779 35.9863C74.5243 36.0101 74.9303 36.4242 75.6191 36.2822C76.2893 36.1439 77.1255 35.918 77.6826 35.5117C78.3623 35.0161 78.7443 34.3487 79.6973 34.4277ZM97.3115 40.3848C95.787 43.9228 93.2871 47.1873 91.2969 50.4814C92.8848 49.9002 94.3062 48.848 95.8086 48.0723C96.365 47.7849 97.323 47.5905 97.6123 46.9795C98.053 46.0479 97.7412 44.4069 97.7412 43.3926C97.7412 42.3795 97.9442 41.22 97.3115 40.3848Z" fill="black"/>
<path d="M103.971 71.3185C105.249 71.5558 106.582 71.3464 107.837 71.6171C108.558 71.7726 109.229 72.3277 109.986 72.2826C110.529 72.2499 110.987 71.8931 111.489 71.7208C112.168 71.4877 112.931 71.4519 113.637 71.3357C118.31 70.5675 122.933 69.5447 127.6 68.7581C130.869 68.2071 134.184 67.3792 137.482 67.0587C140.668 66.7491 144.025 66.915 147.148 66.1629C147.06 65.6549 146.735 64.978 146.861 64.4667C147.029 63.7845 147.788 63.4318 148.008 62.7259C146.998 62.3843 145.67 62.0795 144.811 61.4383C143.787 60.675 144.86 60.0927 145.645 59.9333C145.211 58.6132 142.589 58.1894 141.348 57.7851C142.373 55.9012 144.403 56.0254 146.289 55.7906C147.292 55.6658 148.266 55.6608 148.867 54.7777C146.944 54.0164 144.894 52.9808 142.852 52.6296C144.874 50.7124 147.107 50.9111 149.726 50.9111C149.62 49.8484 149.473 48.4854 149.146 47.474C148.977 46.9497 148.449 46.366 148.583 45.7841C148.732 45.1345 149.612 44.9306 150.156 44.7736C151.766 44.3085 153.453 44.1317 155.097 43.8222V42.9629C151.733 42.6974 148.381 42.0863 145 42.0414C141.822 41.999 138.701 42.375 135.548 42.7124C133.496 42.9322 130.547 42.7318 128.702 43.7302C128.149 44.0293 127.842 44.5912 127.358 44.9751C126.758 45.4503 126.039 45.728 125.453 46.2309C124.232 47.2781 123.269 48.6465 122.193 49.837C119.236 53.1118 116.237 56.3671 113.364 59.7185C111.136 62.3177 108.855 64.8691 106.609 67.4518C105.61 68.6004 104.207 69.7563 103.971 71.3185Z" fill="black"/>
<path d="M94.0898 46.6147L93.8749 47.0443C94.1463 46.8357 94.174 46.8952 94.0898 46.6147ZM120.512 50.911L120.297 51.3406C120.568 51.132 120.596 51.1915 120.512 50.911ZM119.438 52.1998L119.223 52.6295C119.494 52.4209 119.522 52.4804 119.438 52.1998ZM117.719 54.1332L117.075 54.9924C117.452 54.6966 117.621 54.5856 117.719 54.1332ZM99.4601 55.4221C99.7929 55.8809 100.075 56.1634 100.534 56.4961C100.201 56.0373 99.919 55.7548 99.4601 55.4221ZM115.356 56.711C115.102 56.9657 115.028 57.0512 114.927 57.3554C115.259 57.0843 115.315 57.0989 115.356 56.711ZM147.579 63.7998L147.364 64.2295C147.635 64.0209 147.663 64.0804 147.579 63.7998ZM105.045 68.5258L104.83 68.9554C105.102 68.7468 105.13 68.8063 105.045 68.5258ZM122.66 87.8591C122.405 88.1139 122.332 88.1994 122.23 88.5035C122.563 88.2325 122.619 88.2471 122.66 87.8591ZM114.497 89.7924L114.282 90.2221C114.554 90.0135 114.581 90.073 114.497 89.7924ZM111.49 90.8665C111.727 91.1795 111.821 91.274 112.134 91.511C111.897 91.198 111.803 91.1035 111.49 90.8665ZM106.764 96.2369C107.027 96.4936 107.069 96.5196 107.408 96.6665C107.164 96.4483 107.062 96.3853 106.764 96.2369Z" fill="black"/>
<path d="M168.631 6.08936C169.32 5.93587 170.107 5.68554 170.652 6.29834C171.382 7.11897 171.361 8.84486 171.555 9.88135C172.102 12.8043 172.47 15.7793 173.069 18.688C175.472 30.3388 177.598 42.0421 179.93 53.7036C181.629 62.2003 183.058 70.7567 184.699 79.2661C189.284 103.036 193.948 126.791 198.406 150.584C200.247 160.41 202.263 170.225 204.29 180.014C204.926 183.086 205.393 186.189 206.054 189.251C206.436 191.023 207.146 192.997 207.062 194.827C207.015 195.836 206.191 195.896 205.363 196.037L200.423 196.896C193.018 198.138 185.693 199.832 178.297 201.12C175.055 201.684 171.87 202.539 168.631 203.124C153.428 205.867 138.224 208.742 123.09 211.808C116.076 213.229 109.101 214.87 102.038 216.049C96.5067 216.973 91.0192 218.206 85.4971 219.201C84.1379 219.448 82.7724 219.67 81.416 219.927C80.7532 220.054 79.9333 220.324 79.2988 219.963C78.2033 219.338 78.1235 217.012 77.9785 215.888C76.0721 216.492 73.747 216.739 71.749 216.748C71.1041 216.75 70.2312 216.872 69.7109 216.404C68.8663 215.641 69.1708 213.895 69.1709 212.881C69.171 209.248 70.2025 205.899 70.8896 202.355C71.4683 202.634 71.7717 202.928 72.1787 203.429C72.2066 200.123 73.8959 197.159 73.6631 193.762C73.5219 191.701 72.8493 189.766 72.4844 187.748C71.6146 182.935 70.658 178.14 69.6465 173.355C67.5199 163.297 65.6879 153.148 63.6719 143.066C59.2708 121.059 55.3164 98.9276 50.9121 76.9028C48.665 65.6655 46.5291 54.4131 44.2959 43.1772C43.714 40.2499 43.3102 37.2826 42.6572 34.3696C42.4634 33.5065 41.6532 32.043 42.1191 31.1968C42.4464 30.6031 43.2219 30.4919 43.8232 30.3794C45.3207 30.0991 46.8318 29.8801 48.334 29.6265C54.5146 28.5829 60.654 27.2217 66.8086 26.0347C92.0931 21.1573 117.348 16.1901 142.638 11.3423C149.664 9.9954 156.678 8.60876 163.689 7.20654C165.345 6.87556 166.984 6.45603 168.631 6.08936ZM165.838 12.2437C162.284 12.3986 158.603 13.6689 155.097 14.3013C149.943 15.2307 144.779 16.1343 139.631 17.0688C136.747 17.5924 133.916 18.457 131.038 19.0317C119.45 21.3462 107.845 23.6719 96.2383 25.8608C89.6618 27.1012 82.9759 28.1277 76.4746 29.7241C69.7661 31.3715 62.8474 32.3911 56.0674 33.7251C54.4268 34.0479 52.7755 34.3228 51.127 34.6021C50.5593 34.6982 49.6162 34.7252 49.3242 35.3218C48.9378 36.1141 49.4947 37.4357 49.668 38.2368C50.194 40.6698 50.7242 43.0985 51.2129 45.5405C53.0712 54.8304 54.7452 64.1672 56.5391 73.4663C61.1668 97.4564 65.7164 121.455 70.418 145.429C72.1034 154.023 73.937 162.586 75.4922 171.207C76.0754 174.438 77.1911 177.81 77.334 181.088C78.363 179.167 78.7428 176.534 79.3584 174.429C80.6951 169.859 81.8906 165.251 83.2256 160.681C85.5412 152.756 87.5909 144.747 89.9482 136.836C91.9492 130.12 94.3843 123.459 96.7334 116.859C98.6158 111.57 100.274 106.167 102.383 100.962C103.06 99.2917 104.041 96.234 105.689 95.3774C106.085 96.2253 106.647 96.7734 107.408 97.311C108.293 95.1869 110.012 93.1332 110.416 90.8657C110.996 91.1868 111.66 91.7519 112.349 91.7651C113.357 91.7841 114.401 90.7065 115.142 90.1304C117.058 88.6397 118.935 87.0794 120.941 85.7104C121.038 86.8875 121.334 88.0636 121.801 89.1479C124.588 87.702 125.81 84.756 129.104 83.9917C129.003 86.3512 128.196 88.4422 127.457 90.6509C126.597 93.2232 125.913 95.8676 124.894 98.3843C124.095 100.356 122.977 102.16 122.302 104.185C117.348 119.043 112.434 133.898 107.832 148.866C106.25 154.009 104.713 159.167 103.203 164.333C102.685 166.107 101.427 168.634 103.336 169.982C104.916 171.097 106.431 170.163 107.838 169.285C109.468 168.267 111.13 167.298 112.778 166.309C113.748 165.727 114.678 165.023 115.786 164.762C115.615 165.551 115.77 166.319 115.786 167.125H117.075C116.627 168.132 115.849 168.93 115.356 169.918H116.431C116.16 170.622 115.75 171.21 115.356 171.851C117.889 170.653 119.781 168.411 122.229 167.098C123.194 166.581 123.68 167.544 124.597 167.291C126.281 166.825 127.703 165.245 129.319 164.547L128.89 165.836L131.038 165.192C129.776 167.177 127.941 168.864 126.32 170.562C124.501 172.468 122.779 174.477 120.938 176.363C119.975 177.351 119.019 178.323 118.117 179.37C117.679 179.878 117.17 180.379 117.129 181.088C117.08 181.938 117.657 182.749 118.059 183.452C118.953 185.017 119.964 186.544 120.727 188.177C121.903 186.015 122.214 181.716 125.453 181.948C125.357 182.707 125.332 183.62 124.984 184.311C124.587 185.1 123.831 185.628 123.493 186.458C122.96 187.771 122.86 189.371 122.574 190.755C122.44 191.405 122.121 193.132 121.146 192.983C120.468 192.879 120.086 191.927 119.815 191.4C119.001 189.816 118.187 188.211 117.29 186.673C115.691 188.487 116.415 193.321 113.423 193.547C113.423 192.153 113.46 190.798 113.936 189.466C114.378 188.228 115.16 187.153 115.316 185.814C115.429 184.842 115.14 183.955 114.927 183.022C112.332 185.447 110.328 188.624 108.125 191.4C105.785 194.348 103.115 197.027 100.554 199.777C99.0603 201.38 97.6872 203.26 96.0225 204.686C94.9444 205.609 93.3562 205.947 92.1562 206.804C89.9847 208.356 87.8598 209.982 85.7119 211.567C85.1036 212.016 83.7104 212.767 83.9697 213.708C84.1622 214.405 84.963 214.267 85.4971 214.168C87.0764 213.877 88.6472 213.499 90.2227 213.182C96.9388 211.83 103.699 210.7 110.416 209.358C128.721 205.702 147.076 202.282 165.408 198.746C172.553 197.367 179.713 195.974 186.89 194.775C189.903 194.272 192.837 193.25 195.912 193.118C195.648 192.596 195.205 192.154 194.996 191.606C194.696 190.817 194.82 189.865 194.623 189.037C192.391 189.777 190.725 191.856 188.608 192.903C188.339 191.503 189.025 190.41 189.751 189.251C190.542 187.989 191.322 186.716 191.992 185.384C192.896 183.588 193.631 181.576 195.697 180.874C195.745 183.172 196.152 185.926 196.66 188.176C196.858 189.051 197.684 189.514 197.891 190.333C198.073 191.057 197.579 191.984 197.416 192.688C198.159 192.544 199.937 192.528 200.408 191.884C200.849 191.282 200.293 189.91 200.166 189.251C199.713 186.9 199.367 184.524 198.973 182.163C198.203 177.555 197.139 172.993 196.224 168.415C195.009 162.341 193.997 156.229 192.775 150.155C187.311 122.996 181.86 95.7988 176.909 68.5259C176.087 63.9977 174.832 59.5201 173.958 54.9917C172.373 46.7717 171.043 38.4983 169.403 30.2886C168.21 24.3164 166.618 18.2843 165.838 12.2437ZM96.0225 138.341C94.7985 140.495 94.2322 143.286 93.4453 145.644C91.7236 150.804 90.067 156.049 88.7461 161.326C88.2044 163.489 87.5481 165.625 86.9385 167.77C86.6663 168.728 86.6084 169.8 85.7119 170.348C85.6685 169.339 85.4367 168.356 85.5332 167.341C85.7736 164.815 86.84 162.479 87.4531 160.038C87.9343 158.121 88.0966 156.132 88.6592 154.237C89.3297 151.977 91.3227 148.793 90.2227 146.503C88.6534 147.399 89.1656 148.639 88.9248 150.156C88.5596 152.454 87.767 154.81 87.0742 157.03C85.0655 163.466 83.1068 169.914 81.1924 176.363C80.7026 178.013 79.6011 179.456 79.1592 181.089C78.8552 182.214 79.0527 183.584 79.0527 184.741C79.0527 186.779 78.6883 189.225 79.2676 191.185C80.2327 190.221 80.6536 188.657 80.7705 187.319C81.3176 187.614 81.4555 187.795 81.6299 188.393C82.5018 187.78 82.5215 186.369 82.7949 185.385C83.5524 182.661 84.3604 179.951 85.0996 177.222C87.6095 167.955 90.3397 158.62 93.373 149.511C94.2005 147.026 94.9318 144.51 95.6553 141.993C95.9904 140.827 96.5165 139.519 96.0225 138.341Z" fill="black"/>
<path d="M82.2744 181.519C83.1491 181.22 83.4475 180.418 83.7639 179.585C84.406 177.895 84.8357 176.006 85.067 174.215C84.1278 174.519 84.0389 175.257 83.803 176.148C83.3317 177.928 82.5855 179.711 82.2744 181.519ZM133.186 180.23C132.488 180.704 131.534 181.192 131.155 181.986C130.522 183.31 131.799 184.626 132.971 184.956C133.503 183.507 134.035 181.648 133.186 180.23Z" fill="black"/>
<path d="M146.719 182.592C148.126 183.705 148.035 185.971 147.296 187.533C147.006 188.146 146.474 188.612 146.234 189.252C145.847 190.281 145.81 192.287 146.074 193.333C147.43 192.847 147.617 191.593 147.978 190.326C148.387 188.886 148.959 187.488 149.297 186.029C150.276 187.63 151.173 189.303 152.034 190.97C152.501 191.876 152.779 192.797 153.808 193.118C154.864 191.051 154.747 188.843 155.431 186.675C155.724 185.746 156.562 185.448 157.024 184.671C157.483 183.898 157.245 182.601 157.245 181.733C154.944 182.38 153.748 186.459 153.378 188.607C151.721 186.592 150.729 184.079 149.219 181.952C148.214 180.536 147.089 181.039 146.719 182.592Z" fill="black"/>
<path d="M158.104 185.17C158.599 185.085 158.943 184.965 159.393 184.741C158.512 187.964 156.846 190.244 158.534 193.548H159.178C160.246 191.046 160.175 188.025 160.872 185.385C161.109 184.486 161.864 183.121 161.589 182.186C161.33 181.304 159.963 181.067 159.318 181.648C158.494 182.39 158.158 184.118 158.104 185.17Z" fill="black"/>
<path d="M172.355 185.6C172.89 181.84 176.634 180.553 179.801 181.831C181.233 182.408 184.219 183.372 183.736 185.385C183.309 187.169 181.129 188.016 179.801 189.038C181.227 189.777 183.435 191.541 183.882 193.119C182.515 192.937 181.307 192.007 180.23 191.185L180.445 192.044C178.803 191.826 177.439 190.546 175.934 189.897C175.485 190.975 174.944 192.931 173.786 193.333C173.786 191.988 173.67 190.584 173.88 189.252C174.233 187.011 175.283 185.184 176.363 183.237C173.419 183.46 175.071 187.225 172.712 187.963C172.534 187.183 172.24 186.412 172.355 185.6ZM181.708 186.221C182.392 184.746 179.641 182.842 178.346 183.371C177.794 183.596 177.617 184.229 177.438 184.741C177.044 185.87 176.633 187.012 176.363 188.178C177.596 187.924 178.803 187.571 180.016 187.238C180.643 187.066 181.406 186.871 181.708 186.221Z" fill="black"/>
<path d="M163.475 191.4C164.873 190.124 166.519 189.289 168.201 188.446C169.185 187.952 170.221 187.573 170.564 186.46C168.612 186.63 166.277 187.482 164.549 188.393C165.368 186.859 166.422 185.518 167.771 184.411C168.71 183.641 170.187 183.154 170.564 181.948C170.027 181.759 169.43 181.395 168.845 181.442C168.152 181.498 167.46 182.035 166.912 182.423C165.13 183.684 163.949 185.741 162.759 187.534C162.035 188.625 160.511 190.441 161.486 191.784C163.149 194.073 167.641 192.67 169.49 191.418C169.893 191.145 171.882 189.667 171.066 189.066C170.48 188.635 169.336 189.565 168.845 189.83C167.199 190.72 165.369 192.05 163.475 191.4ZM185.601 185.171C186.095 185.085 186.439 184.965 186.89 184.741C186.151 186.644 185.085 188.665 185.18 190.756C185.228 191.824 185.606 192.971 186.675 193.334C187.245 190.84 187.511 188.28 188.208 185.815C188.52 184.714 189.3 183.132 188.944 181.98C188.63 180.966 187.145 181.262 186.545 181.827C185.668 182.652 185.61 184.053 185.601 185.171ZM132.327 190.756C132.071 191.829 132.012 192.915 132.327 193.978H132.756C133.32 193.012 133.847 192 134.287 190.971C134.584 190.276 134.796 189.553 134.984 188.822C135.094 188.394 135.208 187.965 135.305 187.534C135.574 186.334 134.994 185.073 133.616 185.945C131.896 187.034 130.776 189.102 129.104 190.353C128.453 190.841 127.28 192.003 126.625 190.935C125.92 189.789 126.61 188.514 127.245 187.534C128.455 185.665 130.552 183.836 130.608 181.519C127.559 181.926 124.72 185.954 124.258 188.822C124.078 189.942 123.987 191.47 124.777 192.39C125.781 193.558 128.059 193.208 129.319 192.704C130.443 192.255 131.364 191.468 132.327 190.756ZM144.786 188.822C142.305 189.725 140.403 191.266 137.697 191.615C138.674 189.924 141.419 189.026 143.067 188.048C143.896 187.557 144.703 187.199 145.001 186.245C142.954 186.546 140.706 187.233 138.771 187.963C139.581 186.51 140.673 185.26 141.993 184.243C142.58 183.79 143.971 183.307 144.195 182.545C144.635 181.046 141.855 181.8 141.349 182.076C138.693 183.526 136.743 185.859 135.519 188.608C135.137 189.466 134.413 190.655 134.911 191.595C136.436 194.473 140.369 192.91 142.423 191.883C143.813 191.188 145.298 190.625 144.786 188.822Z" fill="black"/>
</svg>
