<svg width="249" height="211" viewBox="0 0 249 211" fill="none" xmlns="http://www.w3.org/2000/svg">
<path d="M231.969 185.488C233.816 183.504 237.054 183.516 239.201 185.514C241.348 187.512 241.59 190.741 239.743 192.725C237.896 194.708 234.658 194.696 232.512 192.698C230.365 190.7 230.122 187.472 231.969 185.488ZM216.912 169.124C219.675 166.157 224.518 166.175 227.729 169.163C230.94 172.152 231.303 176.98 228.54 179.947C225.777 182.914 220.935 182.897 217.724 179.908C214.513 176.92 214.149 172.091 216.912 169.124ZM105.03 0.488281C111.8 -0.159878 118.616 -0.163012 125.386 0.479492L142.716 2.12402C188.442 6.46381 223.37 44.8633 223.37 90.7949C223.37 106.755 219.152 121.8 211.735 134.823C208.407 145.606 219.217 158.775 214.814 165.93C210.273 173.31 194.847 160.016 180.807 166.771C169.405 173.761 156.276 178.272 142.131 179.521L124.679 181.061C118.377 181.617 112.039 181.614 105.737 181.053L89.2354 179.584C43.2496 175.489 8 136.961 8 90.793C8.00002 44.8524 42.9141 6.43546 88.6455 2.05664L105.03 0.488281Z" fill="#366090"/>
<g filter="url(#filter0_d_125_424)">
<path d="M231.969 185.488C233.816 183.505 237.054 183.516 239.201 185.514C241.348 187.512 241.59 190.741 239.743 192.725C237.896 194.708 234.658 194.696 232.512 192.698C230.365 190.7 230.122 187.472 231.969 185.488ZM216.912 169.124C219.675 166.157 224.518 166.175 227.729 169.163C230.94 172.152 231.303 176.98 228.54 179.947C225.777 182.914 220.935 182.897 217.724 179.908C214.513 176.92 214.149 172.091 216.912 169.124ZM105.03 0.488281C111.8 -0.159864 118.616 -0.16297 125.386 0.479492L142.716 2.12402C188.442 6.4638 223.37 44.8635 223.37 90.7949C223.37 106.755 219.152 121.8 211.735 134.823C208.407 145.606 219.217 158.775 214.814 165.93C210.273 173.31 194.847 160.016 180.807 166.771C169.405 173.761 156.276 178.272 142.131 179.521L124.679 181.061C118.377 181.617 112.038 181.614 105.737 181.053L89.2354 179.584C43.2499 175.489 8 136.961 8 90.793C8.00017 44.8526 42.9144 6.43563 88.6455 2.05664L105.03 0.488281ZM144.725 102.691C142.972 101.673 140.996 101.47 138.796 102.081C136.595 102.692 134.945 103.792 133.845 105.381C132.989 106.603 132.296 108.315 131.767 110.515C131.278 112.715 130.972 114.629 130.85 116.259C130.768 117.888 130.707 119.803 130.666 122.003C130.625 124.198 130.605 125.318 130.604 125.364C130.523 126.709 130.442 128.339 130.36 130.254C130.32 132.128 130.279 133.492 130.238 134.348C130.198 135.162 130.075 136.202 129.871 137.465C129.667 138.687 129.342 139.848 128.894 140.948C128.486 142.007 127.895 143.209 127.121 144.554C125.899 146.794 125.266 148.934 125.226 150.971C125.185 152.967 125.675 154.515 126.693 155.615C127.712 156.715 129.016 157.164 130.604 156.96C132.723 156.756 134.415 155.778 135.679 154.026C136.983 152.234 137.675 150.258 137.757 148.099C137.838 145.858 137.736 143.453 137.451 140.887C137.207 138.28 137.105 136.773 137.146 136.365C137.186 135.143 137.451 134.206 137.94 133.554C138.47 132.861 139.061 132.495 139.713 132.454C140.406 132.413 141.058 132.495 141.669 132.698C142.28 132.861 142.769 133.106 143.136 133.432C144.684 135.021 145.071 138.749 144.297 144.615C144.012 146.326 143.971 147.752 144.175 148.893C144.419 149.993 144.725 150.889 145.092 151.582C145.499 152.234 146.009 152.702 146.62 152.987C147.272 153.272 147.863 153.436 148.393 153.477C148.963 153.517 149.533 153.456 150.104 153.293C151.652 152.886 152.854 151.724 153.71 149.81C154.566 147.854 154.954 145.674 154.872 143.271C154.791 141.233 154.362 138.218 153.588 134.226C152.854 130.192 152.468 127.625 152.427 126.525C152.345 124.774 152.162 122.859 151.877 120.781C151.632 118.663 151.225 116.36 150.654 113.875C150.125 111.349 149.33 109.068 148.271 107.031C147.252 104.994 146.069 103.547 144.725 102.691ZM174.332 140.02C172.978 140.012 171.796 140.417 170.789 141.233C169.827 142.015 169.198 142.921 168.903 143.951C168.649 144.986 168.72 146.042 169.117 147.119C169.555 148.201 170.34 148.979 171.471 149.451C172.011 149.725 172.853 149.893 173.995 149.956C175.178 150.024 176.279 149.918 177.301 149.637C178.075 149.365 178.733 148.874 179.275 148.162C179.863 147.415 180.193 146.594 180.266 145.7C180.378 144.811 180.304 143.939 180.043 143.085C179.787 142.19 179.161 141.454 178.167 140.876C177.172 140.298 175.894 140.012 174.332 140.02ZM91.1445 112.217C89.5553 112.135 88.17 112.543 86.9883 113.439C85.8066 114.295 85.1545 115.476 85.0322 116.983C85.0322 118.735 85.0114 119.754 84.9707 120.039C84.9707 120.324 85.0518 121.017 85.2148 122.117C85.4186 123.217 85.5205 123.91 85.5205 124.195C85.602 124.725 85.7654 125.601 86.0098 126.822C86.295 128.004 86.5196 129.064 86.6826 130.001C86.8863 130.938 87.0289 132.079 87.1104 133.423C87.1918 134.726 87.0899 135.786 86.8047 136.601C86.6417 137.212 86.5398 137.823 86.499 138.435C86.1732 141.449 87.1715 143.323 89.4941 144.057C91.45 144.627 93.3857 144.301 95.3008 143.079C97.3383 141.775 98.113 140.104 97.624 138.067C97.3388 136.927 97.0123 135.765 96.6455 134.584C96.3195 133.403 96.0543 132.526 95.8506 131.956C95.6469 131.345 95.443 130.571 95.2393 129.634C95.0356 128.656 94.9544 127.862 94.9951 127.251C95.0359 126.599 95.0972 125.621 95.1787 124.317C95.5455 121.832 95.6879 119.693 95.6064 117.9C95.5249 115.863 95.1173 114.417 94.3838 113.562C93.6503 112.706 92.5707 112.258 91.1445 112.217ZM120.437 98.542C118.277 98.3791 116.035 99.0314 113.713 100.498C111.431 101.924 109.74 103.675 108.64 105.753C107.417 107.994 106.399 110.622 105.584 113.637C104.81 116.611 104.3 119.748 104.056 123.048C103.852 126.307 104.096 129.424 104.789 132.398C105.645 136.024 107.173 138.978 109.373 141.26C111.614 143.541 114.263 144.479 117.319 144.071C120.009 143.664 122.311 142.808 124.227 141.504C126.142 140.2 127.425 138.469 128.077 136.31C128.811 134.069 128.893 131.91 128.322 129.832C127.793 127.713 126.733 126.45 125.144 126.043C121.272 125.024 119.235 126.919 119.031 131.727C118.95 133.356 118.603 134.537 117.992 135.271C117.381 135.963 116.729 136.269 116.036 136.188C115.384 136.065 114.793 135.719 114.264 135.148C113.204 134.008 112.45 132.338 112.002 130.138C111.554 127.897 111.411 125.594 111.574 123.231C111.778 120.828 112.144 118.546 112.674 116.387C113.204 114.227 113.938 112.496 114.875 111.192C115.812 109.889 116.811 109.338 117.87 109.542C118.522 109.664 118.929 110.032 119.092 110.643C119.296 111.254 119.337 111.885 119.215 112.537C119.133 113.189 119.235 113.861 119.521 114.554C119.806 115.205 120.335 115.674 121.109 115.959C122.128 116.244 123.004 116.367 123.737 116.326C124.511 116.245 125.164 115.939 125.693 115.409C126.223 114.88 126.652 114.309 126.978 113.698C127.344 113.087 127.608 112.394 127.771 111.62C127.975 110.805 128.098 110.093 128.139 109.481C128.22 108.87 128.261 108.299 128.261 107.77C128.22 104.959 127.466 102.759 125.999 101.17C124.573 99.581 122.718 98.705 120.437 98.542ZM77.46 98.5273C75.8707 98.4459 74.4845 98.8933 73.3027 99.8711C72.1618 100.849 71.286 102.052 70.6748 103.478C70.0636 104.903 69.5134 106.329 69.0244 107.755C68.5762 109.181 68.0873 110.383 67.5576 111.36C67.0686 112.338 66.4977 112.807 65.8457 112.767C65.6014 112.726 65.3775 112.664 65.1738 112.583C64.9701 112.502 64.7662 112.338 64.5625 112.094C64.3996 111.849 64.257 111.625 64.1348 111.422C64.0126 111.218 63.8492 110.892 63.6455 110.444C63.4825 109.996 63.34 109.629 63.2178 109.344C63.0955 109.018 62.9115 108.529 62.667 107.877C62.4633 107.225 62.2802 106.695 62.1172 106.288C61.4244 104.414 60.4874 102.947 59.3057 101.888C58.1239 100.828 56.6971 100.36 55.0264 100.482C53.7633 100.605 52.6222 101.277 51.6035 102.499C50.5848 103.681 50.0752 105.311 50.0752 107.389C50.0752 107.878 50.1168 108.916 50.1982 110.505C50.2797 112.053 50.3203 113.337 50.3203 114.355C50.361 115.333 50.3205 116.495 50.1982 117.839C50.0352 118.694 49.8106 119.896 49.5254 121.444C49.2809 122.992 49.1176 124.072 49.0361 124.684C48.9546 125.254 48.8329 126.232 48.6699 127.616C48.5477 129.001 48.5675 130 48.7305 130.611C49.0565 134.237 49.8105 136.906 50.9922 138.617C52.1739 140.287 53.6207 141.143 55.332 141.184C57.5733 141.306 59.2237 140.368 60.2832 138.372C61.3426 136.376 61.5871 133.728 61.0166 130.428C60.8129 129.328 60.5279 128.126 60.1611 126.822C59.8351 125.478 59.5294 124.357 59.2441 123.461C58.9996 122.524 58.776 121.627 58.5723 120.771C58.4094 119.916 58.3678 119.224 58.4492 118.694C58.5715 118.165 58.8168 117.797 59.1836 117.594C59.7539 117.309 60.243 117.717 60.6504 118.816C61.0986 119.876 61.445 121.159 61.6895 122.666C61.9747 124.133 62.4635 125.478 63.1562 126.7C63.849 127.922 64.7049 128.493 65.7236 128.411C66.783 128.33 67.6588 127.555 68.3516 126.089C69.0443 124.581 69.5341 122.972 69.8193 121.261C70.1453 119.509 70.6134 117.94 71.2246 116.555C71.8358 115.17 72.5701 114.539 73.4258 114.661C74.2812 114.743 74.6476 115.354 74.5254 116.494C74.4438 117.513 73.5068 120.467 71.7139 125.355C71.1434 126.985 70.7971 128.472 70.6748 129.816C70.5933 131.161 70.715 132.262 71.041 133.117C71.4077 133.973 71.8155 134.686 72.2637 135.256C72.7526 135.785 73.3029 136.213 73.9141 136.539C74.8919 137.069 75.9312 137.273 77.0312 137.15C78.1723 137.028 79.2122 136.702 80.1494 136.172C81.1271 135.642 81.9419 134.848 82.5938 133.789C83.2865 132.73 83.6941 131.569 83.8164 130.306C83.9794 128.187 83.7557 125.62 83.1445 122.605C82.5333 119.591 82.2681 116.596 82.3496 113.622C82.3904 112.196 82.3696 110.77 82.2881 109.344C82.2066 107.877 82.0235 106.267 81.7383 104.516C81.453 102.764 80.9434 101.338 80.21 100.238C79.4766 99.0976 78.56 98.5275 77.46 98.5273ZM181.041 108.529C178.767 108.323 176.626 108.523 174.618 109.131C172.525 109.769 170.922 111.064 169.812 113.018C168.645 115.087 168.468 116.975 169.278 118.68C170.225 120.606 172.152 121.118 175.06 120.214C176.167 119.903 177.277 119.571 178.39 119.22C179.508 118.9 180.329 118.939 180.852 119.337L181.053 119.507C181.536 119.946 181.706 120.58 181.562 121.409C181.414 122.253 180.945 122.871 180.156 123.264C180.024 123.329 179.445 123.523 178.419 123.844C177.433 124.17 176.431 124.618 175.414 125.188C174.438 125.762 173.496 126.546 172.59 127.539C171.491 128.755 170.798 130.166 170.512 131.772C170.271 133.344 170.541 134.774 171.322 136.064C172.108 137.314 173.327 138.065 174.979 138.315C176.91 138.643 178.303 138.511 179.158 137.921C180.013 137.331 180.47 136.321 180.528 134.892C180.644 132.361 180.791 130.881 180.969 130.451C181.03 130.295 181.089 130.158 181.145 130.042C181.241 129.931 181.335 129.84 181.426 129.77C181.522 129.659 181.658 129.553 181.835 129.452C182.012 129.352 182.146 129.266 182.237 129.195C182.374 129.089 182.574 128.971 182.837 128.84C183.14 128.714 183.379 128.621 183.551 128.561C183.728 128.46 184.011 128.332 184.4 128.176C184.83 128.025 185.176 127.884 185.439 127.753C187.529 126.827 189.043 125.254 189.982 123.032C190.927 120.77 191.137 118.476 190.61 116.15C190.13 113.79 189.043 111.988 187.353 110.747C185.419 109.475 183.315 108.736 181.041 108.529ZM159.909 102.667C158.32 102.586 156.935 102.993 155.753 103.89C154.571 104.745 153.919 105.926 153.797 107.434C153.797 109.185 153.776 110.204 153.735 110.489C153.735 110.774 153.817 111.467 153.98 112.567C154.184 113.667 154.286 114.36 154.286 114.646C154.368 115.175 154.531 116.051 154.775 117.273C155.061 118.455 155.284 119.514 155.447 120.451C155.651 121.388 155.794 122.529 155.875 123.873C155.956 125.177 155.855 126.236 155.569 127.051C155.406 127.662 155.304 128.274 155.264 128.885C154.938 131.899 155.936 133.773 158.259 134.507C160.215 135.077 162.151 134.752 164.066 133.529C166.104 132.226 166.878 130.555 166.389 128.518C166.103 127.377 165.778 126.216 165.411 125.034C165.085 123.853 164.82 122.977 164.616 122.406C164.412 121.795 164.209 121.021 164.005 120.084C163.801 119.106 163.72 118.312 163.761 117.701C163.801 117.049 163.862 116.071 163.943 114.768C164.31 112.282 164.453 110.143 164.371 108.351C164.29 106.314 163.883 104.867 163.149 104.012C162.416 103.156 161.335 102.708 159.909 102.667ZM139.591 111.98C140.569 110.392 141.547 110.555 142.524 112.47C143.584 114.629 144.113 117.359 144.113 120.659C144.113 122.941 142.952 124.591 140.63 125.609C139.774 126.098 138.999 126.2 138.307 125.915C137.614 125.63 137.308 124.876 137.39 123.653C137.39 123.531 137.41 123.103 137.451 122.37C137.492 121.596 137.512 121.066 137.512 120.781C137.552 120.496 137.594 119.986 137.635 119.253C137.716 118.52 137.777 117.97 137.817 117.604C137.899 117.196 138.001 116.686 138.123 116.075C138.245 115.423 138.368 114.894 138.49 114.486C138.612 114.079 138.755 113.651 138.918 113.203C139.122 112.714 139.346 112.306 139.591 111.98ZM90.7773 101.95C90.0848 101.828 89.4739 101.828 88.9443 101.95C87.1923 102.154 85.9286 102.703 85.1543 103.6C84.3801 104.496 83.9724 105.474 83.9316 106.533C83.8909 107.837 84.3798 108.815 85.3984 109.467C86.4579 110.119 87.7215 110.363 89.1885 110.2C91.4701 109.956 92.9981 109.487 93.7725 108.795C94.5875 108.062 94.9951 107.165 94.9951 106.105C94.9951 105.128 94.7714 104.313 94.3232 103.661C93.875 103.009 93.3446 102.582 92.7334 102.378C92.1222 102.174 91.4701 102.032 90.7773 101.95ZM159.543 92.4004C158.85 92.2782 158.239 92.2782 157.709 92.4004C155.957 92.6041 154.693 93.1535 153.919 94.0498C153.145 94.9461 152.737 95.9242 152.696 96.9834C152.656 98.2871 153.145 99.2651 154.164 99.917C155.223 100.569 156.486 100.813 157.953 100.65C160.235 100.406 161.764 99.9377 162.538 99.2451C163.353 98.5118 163.761 97.615 163.761 96.5557C163.761 95.5779 163.536 94.7632 163.088 94.1113C162.64 93.4596 162.11 93.0319 161.499 92.8281C160.888 92.6244 160.236 92.4819 159.543 92.4004ZM41.498 63.2998C40.3809 62.4765 38.9851 62.2427 37.3105 62.5986C35.3887 62.9715 34.126 63.5648 33.5234 64.3779C32.9514 65.142 32.8556 66.1491 33.2363 67.3984C33.9527 69.5313 34.3191 70.8055 34.334 71.2207C34.3226 71.3488 34.2911 71.4816 34.2402 71.6191C34.1892 71.7569 34.1327 71.8755 34.0723 71.9736C34.0513 72.0623 33.9758 72.1845 33.8457 72.3408C33.7154 72.4974 33.6001 72.6298 33.5 72.7373C33.3999 72.8448 33.2499 73.0067 33.0498 73.2217C32.8403 73.397 32.6504 73.5675 32.4805 73.7334C32.3408 73.8503 32.1162 74.0502 31.8066 74.333C31.4876 74.5762 31.2275 74.8055 31.0273 75.0205C29.3296 76.5126 28.4091 78.3653 28.2646 80.5771C28.1108 82.7493 28.6657 84.7319 29.9297 86.5254C31.1446 88.2887 32.7522 89.4145 34.7529 89.9023C37.0217 90.2846 39.2567 90.1722 41.458 89.5654C43.6592 88.9587 45.5871 88.0822 47.2412 86.9355C48.9557 85.6907 50.0266 84.1169 50.4541 82.2148C50.9439 80.0467 50.5485 78.382 49.2676 77.2207C47.7222 75.8291 45.6931 76.0169 43.1816 77.7861C42.2848 78.4179 41.3734 79.075 40.4463 79.7559C39.3908 80.4254 38.5275 80.6719 37.8574 80.4961C37.2178 80.2712 36.8279 79.7779 36.6885 79.0156C36.5888 78.2437 36.8242 77.559 37.3945 76.9629C37.5343 76.8459 38.0178 76.501 38.8447 75.9277C39.6624 75.3147 40.457 74.6022 41.2275 73.791C41.9885 72.9403 42.6131 71.9547 43.1006 70.834C43.7695 69.4188 43.9581 68.012 43.668 66.6152C43.3778 65.2188 42.6547 64.1136 41.498 63.2998ZM109.82 51.8164C107.538 51.6128 105.093 52.3047 102.485 53.8936C100.407 55.238 98.8794 57.5605 97.9014 60.8604C96.9641 64.1197 96.6376 67.6446 96.9229 71.4336C97.2489 75.2224 98.1256 78.6041 99.5518 81.5781C100.856 84.3484 102.689 86.3858 105.053 87.6895C107.457 88.9931 110.025 89.4 112.755 88.9111C113.651 88.7889 114.527 88.5444 115.383 88.1777C116.239 87.8111 117.094 87.3221 117.95 86.7109C118.806 86.0591 119.519 85.2443 120.09 84.2666C120.701 83.2481 121.088 82.0868 121.251 80.7832C121.373 79.6427 121.19 78.6039 120.701 77.667C120.212 76.6892 119.56 75.9755 118.745 75.5273C117.971 75.0792 117.074 74.9367 116.056 75.0996C115.078 75.2626 114.201 75.7724 113.427 76.6279C111.552 78.787 109.882 79.4997 108.415 78.7666C107.682 78.4407 107.151 77.8903 106.825 77.1162C106.54 76.3015 106.561 75.5479 106.887 74.8555C107.213 74.1222 107.844 73.6945 108.781 73.5723C111.308 73.2463 113.183 72.8385 114.405 72.3496C115.668 71.8199 116.769 70.9032 117.706 69.5996C118.317 68.6627 118.724 67.6239 118.928 66.4834C119.172 65.302 119.254 64.3239 119.173 63.5498C119.132 62.7757 119.009 61.7977 118.806 60.6162C118.439 58.2126 117.421 56.196 115.75 54.5664C114.12 52.9367 112.143 52.0201 109.82 51.8164ZM59.1465 37.6465C57.1905 37.2391 55.4579 37.341 53.9502 37.9521C52.4834 38.5225 51.1799 39.3987 50.0391 40.5801C49.1833 41.5171 48.5511 42.6169 48.1436 43.8799C47.7768 45.1428 47.5938 46.3446 47.5938 47.4854V51.7637C47.5937 53.4338 47.4918 54.8596 47.2881 56.041C46.3101 62.6004 46.5139 67.5716 47.8994 70.9531C48.5922 72.5418 49.6927 73.9468 51.2002 75.1689C52.7079 76.3912 54.3584 77.2068 56.1514 77.6143C56.2329 80.4253 56.885 82.7477 58.1074 84.5811C59.4929 86.5772 61.2652 87.8811 63.4248 88.4922C65.5846 89.1033 67.1538 88.7569 68.1318 87.4531C69.1097 86.1088 69.2927 84.7237 68.6816 83.2979C68.1112 81.8312 66.9296 80.8938 65.1367 80.4863C63.629 80.2011 62.4673 79.0806 61.6523 77.125C62.2636 76.8398 62.8345 76.4735 63.3643 76.0254C64.9534 74.681 66.2161 73.2751 67.1533 71.8086C68.0905 70.3419 68.7832 68.3452 69.2314 65.8193C69.7204 63.2526 69.8223 60.1562 69.5371 56.5303C69.2111 52.0894 68.7223 48.7278 68.0703 46.4463C67.4591 44.1649 66.3794 42.2909 64.8311 40.8242C63.0381 39.1131 61.1431 38.0539 59.1465 37.6465ZM189.692 54.1357C188.118 53.9027 186.7 54.1752 185.438 54.9541C184.18 55.6927 183.418 56.8071 183.152 58.2959C182.985 60.0388 182.867 61.0505 182.799 61.3311C182.772 61.6149 182.786 62.3125 182.843 63.4229C182.94 64.5371 182.976 65.2365 182.948 65.5205C182.979 66.0555 183.057 66.9436 183.184 68.1836C183.354 69.3869 183.476 70.4629 183.549 71.4111C183.662 72.3633 183.695 73.5124 183.647 74.8584C183.604 76.1638 183.401 77.2084 183.039 77.9922C182.818 78.5849 182.659 79.1837 182.56 79.7881C181.947 82.758 182.761 84.7187 185.003 85.6709C186.895 86.4256 188.853 86.2871 190.876 85.2539C193.029 84.1511 193.96 82.5618 193.668 80.4873C193.493 79.3246 193.28 78.1377 193.028 76.9268C192.817 75.7195 192.637 74.8216 192.488 74.2344C192.344 73.6066 192.216 72.8164 192.103 71.8643C191.993 70.8716 191.988 70.0731 192.087 69.4688C192.19 68.8238 192.344 67.8563 192.55 66.5664C193.153 64.1276 193.5 62.0119 193.591 60.2197C193.705 58.1846 193.437 56.706 192.789 55.7842C192.141 54.8624 191.108 54.3127 189.692 54.1357ZM95.3203 46.0596C94.0978 44.5522 92.5898 44.1651 90.7969 44.8984C89.0855 45.5503 88.0257 46.9146 87.6182 48.9922C87.4959 49.6033 87.3534 50.8259 87.1904 52.6592C87.0274 54.4517 86.7424 56.2852 86.335 58.1592C85.9275 60.0331 85.2753 61.9687 84.3789 63.9648C83.6862 65.513 82.9519 66.9187 82.1777 68.1816C81.322 69.4854 80.4661 70.3208 79.6104 70.6875C78.7955 71.054 78.1432 70.9729 77.6543 70.4434C77.1655 69.9138 76.921 69.0581 76.9209 67.877C76.9616 66.6547 77.6345 64.4334 78.9385 61.2148C80.2424 57.9557 80.9559 56.1628 81.0781 55.8369C81.9337 53.0667 81.8319 50.9481 80.7725 49.4814C79.7538 48.0148 78.205 47.4853 76.127 47.8926C74.2932 48.2593 73.091 49.1561 72.5205 50.582C72.1946 51.4781 71.9501 52.3537 71.7871 53.209C71.6241 54.0646 71.5222 54.9208 71.4814 55.7764V61.9482C71.4814 62.8038 71.2568 64.3322 70.8086 66.5322C70.3604 68.6914 70.1159 70.5862 70.0752 72.2158C70.0752 73.8045 70.2791 75.2303 70.6865 76.4932C71.094 77.7562 71.6442 78.7341 72.3369 79.4268C73.0297 80.1194 73.7836 80.6697 74.5986 81.0771C75.4542 81.4844 76.3302 81.6468 77.2266 81.5654C78.1638 81.4839 79.0405 81.28 79.8555 80.9541C80.6703 80.5874 81.4038 80.0577 82.0557 79.3652C82.7483 78.6319 83.2372 77.8171 83.5225 76.9209C84.4597 74.232 85.1939 72.4393 85.7236 71.543C86.2941 70.6062 86.9463 70.2803 87.6797 70.5654C87.9238 70.6473 87.924 71.1771 87.6797 72.1543C87.4352 73.132 87.0879 74.3745 86.6396 75.8818C86.1914 77.3893 85.9272 78.5712 85.8457 79.4268C85.642 81.1784 86.0083 82.5229 86.9453 83.46C87.8826 84.3563 89.0036 84.8255 90.3076 84.8662C91.7746 84.907 92.9768 84.3159 93.9141 83.0938C94.892 81.8715 95.2175 80.1807 94.8916 78.0215C94.7694 77.2474 94.6674 76.5139 94.5859 75.8213C94.5452 75.1287 94.4848 74.5169 94.4033 73.9873C94.3626 73.417 94.3418 72.7654 94.3418 72.0322C94.3825 71.2989 94.3825 70.7485 94.3418 70.3818C94.3418 70.0151 94.4032 69.4042 94.5254 68.5488C94.6476 67.653 94.7089 67.0419 94.709 66.7158C94.7497 66.3899 94.8517 65.6562 95.0146 64.5156C95.2183 63.3751 95.3609 62.6009 95.4424 62.1934C95.5239 61.7859 95.6862 60.8278 95.9307 59.3203C96.2158 57.7726 96.4197 56.6932 96.542 56.082C97.3569 51.397 96.95 48.056 95.3203 46.0596ZM155.786 35.5605C152.485 35.3976 149.102 35.5401 145.639 35.9883C142.216 36.3957 139.526 37.1292 137.57 38.1885C136.307 38.8811 135.39 39.9611 134.819 41.4277C134.249 42.8943 134.004 44.524 134.086 46.3164C134.167 48.109 134.331 49.7592 134.575 51.2666C134.86 52.7333 135.228 54.139 135.676 55.4834C136.205 57.2352 136.592 58.8855 136.837 60.4336C137.081 61.941 137.163 63.3467 137.081 64.6504C137 65.9538 136.878 67.0332 136.715 67.8887C136.593 68.7442 136.368 69.8044 136.042 71.0674C135.757 72.2894 135.574 73.1855 135.492 73.7559C135.37 74.4892 135.268 75.0802 135.187 75.5283C135.105 75.9357 135.024 76.5674 134.942 77.4229C134.861 78.2376 134.84 78.9306 134.881 79.501C134.922 80.0305 135.024 80.6416 135.187 81.334C135.35 82.0266 135.574 82.577 135.859 82.9844C136.185 83.3916 136.634 83.7582 137.204 84.084C137.815 84.3691 138.508 84.5117 139.282 84.5117C141.564 84.5524 143.296 84.0841 144.478 83.1064C145.7 82.1286 146.352 80.8448 146.434 79.2559C146.515 78.2781 146.392 77.0149 146.066 75.4668C145.74 73.8781 145.394 72.4117 145.027 71.0674C144.701 69.7229 144.416 68.4183 144.172 67.1553C143.968 65.8928 144.009 64.8745 144.294 64.1006C144.62 63.2858 145.272 62.8374 146.25 62.7559C146.943 62.6744 148.247 62.613 150.162 62.5723C152.118 62.5315 153.605 62.4097 154.624 62.2061C154.818 62.1703 155.007 62.1273 155.189 62.0781C155.093 63.1009 155.061 64.119 155.1 65.1328C155.222 67.2514 155.568 69.1668 156.139 70.8779C156.709 72.5889 157.688 73.974 159.073 75.0332C160.459 76.0923 162.19 76.6221 164.269 76.6221C165.532 76.622 166.571 76.3776 167.386 75.8887C168.241 75.3591 168.792 74.7888 169.036 74.1777C169.321 73.5666 169.606 73.0162 169.892 72.5273C170.217 71.9979 170.564 71.7336 170.931 71.7334C171.297 71.7334 171.583 71.9365 171.787 72.3438C171.991 72.7512 172.153 73.4035 172.275 74.2998C172.561 76.622 173.376 78.2108 174.721 79.0664C176.228 79.9626 177.512 80.1872 178.571 79.7393C179.631 79.2504 180.406 78.3328 180.895 76.9883C181.383 75.6032 181.465 74.1567 181.139 72.6494C179.468 64.8271 179.387 57.6157 180.895 51.0156C181.139 49.7936 181.159 48.7549 180.955 47.8994C180.792 47.0438 180.446 46.3509 179.916 45.8213C179.386 45.2917 178.795 44.9452 178.144 44.7822C177.532 44.5786 176.901 44.5172 176.249 44.5986C175.597 44.6394 175.047 44.8235 174.599 45.1494C174.15 45.516 173.6 45.9636 172.948 46.4932C172.296 47.0226 171.807 47.3692 171.481 47.5322C171.196 47.6952 170.808 47.7773 170.319 47.7773C170.034 47.7771 169.484 47.5732 168.669 47.166C167.895 46.7587 167.141 46.4933 166.408 46.3711C165.675 46.2081 164.554 46.3507 163.046 46.7988C161.416 47.41 159.929 48.8977 158.584 51.2607C158.087 52.1188 157.645 52.9933 157.26 53.8848C156.006 53.0429 154.21 52.761 151.874 53.0391C148.818 53.4465 146.902 53.5484 146.128 53.3447C145.354 53.1818 144.844 52.6512 144.6 51.7549C144.355 50.818 144.437 49.8604 144.845 48.8828C145.252 47.9054 145.863 47.2537 146.678 46.9277C148.145 46.3981 150.916 46.0516 154.991 45.8887C156.988 45.8072 158.577 45.3389 159.759 44.4834C160.981 43.6278 161.674 42.5271 161.837 41.1826C161.918 40.5308 161.899 39.9397 161.776 39.4102C161.654 38.8399 161.389 38.2695 160.981 37.6992C160.615 37.0882 159.983 36.5991 159.087 36.2324C158.231 35.825 157.131 35.6013 155.786 35.5605ZM107.986 60.4326C108.475 60.3919 108.944 60.474 109.393 60.6777C109.841 60.8407 110.187 61.2278 110.432 61.8389C110.676 62.4499 110.758 63.2441 110.677 64.2217C110.595 65.1993 110.187 65.9736 109.454 66.5439C108.721 67.1142 107.926 67.3389 107.07 67.2168C106.255 67.0946 105.684 66.666 105.358 65.9326C104.951 64.7513 104.89 63.7324 105.175 62.877C105.46 61.981 105.949 61.3293 106.642 60.9219C107.049 60.6368 107.497 60.4734 107.986 60.4326ZM168.914 53.3379C170.055 53.4195 170.809 54.642 171.176 57.0049C171.583 59.3678 171.399 61.6695 170.625 63.9102C170.258 64.9693 169.851 65.7237 169.403 66.1719C168.955 66.5793 168.363 66.8436 167.63 66.9658C166.611 67.1286 165.817 66.5991 165.246 65.377C164.716 64.1141 164.493 62.5864 164.574 60.7939C164.656 58.9606 165.022 57.2897 165.674 55.7822C166.367 54.0305 167.447 53.2157 168.914 53.3379ZM56.2119 47.0576C56.7009 45.7947 57.5975 45.3266 58.9014 45.6523C59.3495 45.7745 59.7574 45.937 60.124 46.1406C60.4908 46.3036 60.7965 46.5689 61.041 46.9355C61.2855 47.3022 61.4686 47.6081 61.5908 47.8525C61.7538 48.0563 61.8973 48.4632 62.0195 49.0742C62.1418 49.6445 62.2229 50.0316 62.2637 50.2354C62.3044 50.3983 62.345 50.8467 62.3857 51.5801C62.4672 52.2726 62.5286 52.6597 62.5693 52.7412C62.8138 54.6967 62.7732 56.6727 62.4473 58.6689C62.1213 60.6652 61.6117 62.2135 60.9189 63.3135C59.9002 64.9431 58.8405 65.6559 57.7402 65.4521C56.6402 65.2076 56.0493 64.1691 55.9678 62.3359C55.927 61.7248 55.8865 60.2578 55.8457 57.9355C55.8457 55.6133 55.8051 53.9226 55.7236 52.8633C55.6014 50.2152 55.7637 48.2799 56.2119 47.0576ZM37.0176 52.1152C34.8921 52.1596 33.0468 52.7661 31.4814 53.9336C30.9131 54.3617 30.495 54.9838 30.2285 55.8008C29.9922 56.5688 29.9688 57.3498 30.1572 58.1426C30.3457 58.9352 30.6832 59.651 31.1699 60.2891C31.6567 60.927 32.4474 61.3464 33.542 61.5469C34.6669 61.6983 35.944 61.5206 37.373 61.0137C38.6831 60.5349 39.6605 59.7999 40.3047 58.8096C40.9393 57.7795 41.2037 56.7744 41.0967 55.7949C41.0292 54.806 40.6138 53.9413 39.8516 53.2012C39.1289 52.4516 38.1842 52.0893 37.0176 52.1152ZM190.311 43.8809C189.633 43.693 189.024 43.6342 188.485 43.7051C186.722 43.7402 185.411 44.1672 184.555 44.9854C183.698 45.8035 183.199 46.7376 183.057 47.7881C182.891 49.0819 183.285 50.1023 184.236 50.8486C185.229 51.5988 186.463 51.9632 187.938 51.9414C190.233 51.9164 191.8 51.5958 192.637 50.9805C193.518 50.3285 194.009 49.4752 194.11 48.4209C194.204 47.4476 194.06 46.6146 193.676 45.9229C193.292 45.2311 192.805 44.7544 192.216 44.4932C191.627 44.2321 190.992 44.0282 190.311 43.8809ZM113.243 39.5938C111.654 39.0235 110.33 39.3085 109.271 40.4492C109.148 40.6122 108.7 41.1212 107.926 41.9766C107.192 42.7914 106.296 43.8714 105.236 45.2158C104.177 46.5603 103.463 47.5789 103.097 48.2715C102.526 49.3715 102.689 50.1456 103.586 50.5938C104.523 51.0418 105.583 50.9201 106.765 50.2275C107.865 49.6164 109.229 48.6582 110.859 47.3545C112.489 46.0508 113.712 44.951 114.527 44.0547C115.138 43.4029 115.424 42.7306 115.383 42.0381C115.301 40.8973 114.588 40.0827 113.243 39.5938Z" fill="url(#paint0_radial_125_424)"/>
</g>
<defs>
<filter id="filter0_d_125_424" x="0" y="0" width="248.984" height="210.205" filterUnits="userSpaceOnUse" color-interpolation-filters="sRGB">
<feFlood flood-opacity="0" result="BackgroundImageFix"/>
<feColorMatrix in="SourceAlpha" type="matrix" values="0 0 0 0 0 0 0 0 0 0 0 0 0 0 0 0 0 0 127 0" result="hardAlpha"/>
<feOffset dy="8"/>
<feGaussianBlur stdDeviation="4"/>
<feComposite in2="hardAlpha" operator="out"/>
<feColorMatrix type="matrix" values="0 0 0 0 0 0 0 0 0 0 0 0 0 0 0 0 0 0 0.25 0"/>
<feBlend mode="normal" in2="BackgroundImageFix" result="effect1_dropShadow_125_424"/>
<feBlend mode="normal" in="SourceGraphic" in2="effect1_dropShadow_125_424" result="shape"/>
</filter>
<radialGradient id="paint0_radial_125_424" cx="0" cy="0" r="1" gradientTransform="matrix(7.13519 103.729 -124.443 8.55638 117.357 90.4751)" gradientUnits="userSpaceOnUse">
<stop offset="0.581731" stop-color="#DAE0FA"/>
<stop offset="1" stop-color="#576ABD"/>
</radialGradient>
</defs>
</svg>
