<?xml version='1.0' encoding='utf-8'?>
<svg xmlns="http://www.w3.org/2000/svg" width="1000" height="250" viewBox="0 0 400 100">\n<style>.bar { transform-box: fill-box; transform-origin: center center; will-change: transform; }
@keyframes wiggle { 0% { transform: scaleY(1); } 25% { transform: scaleY(1.04); } 50% { transform: scaleY(0.98); } 75% { transform: scaleY(1.02); } 100% { transform: scaleY(1); } }
@keyframes wiggle-0 {
  0% { transform: translateY(0px) scaleY(1); }
 25% { transform: translateY(-0.22px) scaleY(1.04); }
 50% { transform: translateY(0.11px) scaleY(0.98); }
 75% { transform: translateY(-0.11px) scaleY(1.02); }
 100% { transform: translateY(0px) scaleY(1); }
}
@keyframes wiggle-1 {
  0% { transform: translateY(0px) scaleY(1); }
 25% { transform: translateY(-1.06px) scaleY(1.04); }
 50% { transform: translateY(0.53px) scaleY(0.98); }
 75% { transform: translateY(-0.53px) scaleY(1.02); }
 100% { transform: translateY(0px) scaleY(1); }
}
@keyframes wiggle-2 {
  0% { transform: translateY(0px) scaleY(1); }
 25% { transform: translateY(-0.64px) scaleY(1.04); }
 50% { transform: translateY(0.32px) scaleY(0.98); }
 75% { transform: translateY(-0.32px) scaleY(1.02); }
 100% { transform: translateY(0px) scaleY(1); }
}
@keyframes wiggle-3 {
  0% { transform: translateY(0px) scaleY(1); }
 25% { transform: translateY(-1.2px) scaleY(1.04); }
 50% { transform: translateY(0.6px) scaleY(0.98); }
 75% { transform: translateY(-0.6px) scaleY(1.02); }
 100% { transform: translateY(0px) scaleY(1); }
}
@keyframes wiggle-4 {
  0% { transform: translateY(0px) scaleY(1); }
 25% { transform: translateY(-1.06px) scaleY(1.04); }
 50% { transform: translateY(0.53px) scaleY(0.98); }
 75% { transform: translateY(-0.53px) scaleY(1.02); }
 100% { transform: translateY(0px) scaleY(1); }
}
@keyframes wiggle-5 {
  0% { transform: translateY(0px) scaleY(1); }
 25% { transform: translateY(-0.36px) scaleY(1.04); }
 50% { transform: translateY(0.18px) scaleY(0.98); }
 75% { transform: translateY(-0.18px) scaleY(1.02); }
 100% { transform: translateY(0px) scaleY(1); }
}
@keyframes wiggle-6 {
  0% { transform: translateY(0px) scaleY(1); }
 25% { transform: translateY(-0.92px) scaleY(1.04); }
 50% { transform: translateY(0.46px) scaleY(0.98); }
 75% { transform: translateY(-0.46px) scaleY(1.02); }
 100% { transform: translateY(0px) scaleY(1); }
}
@keyframes wiggle-7 {
  0% { transform: translateY(0px) scaleY(1); }
 25% { transform: translateY(-0.64px) scaleY(1.04); }
 50% { transform: translateY(0.32px) scaleY(0.98); }
 75% { transform: translateY(-0.32px) scaleY(1.02); }
 100% { transform: translateY(0px) scaleY(1); }
}
@keyframes wiggle-8 {
  0% { transform: translateY(0px) scaleY(1); }
 25% { transform: translateY(-0.22px) scaleY(1.04); }
 50% { transform: translateY(0.11px) scaleY(0.98); }
 75% { transform: translateY(-0.11px) scaleY(1.02); }
 100% { transform: translateY(0px) scaleY(1); }
}
@keyframes wiggle-9 {
  0% { transform: translateY(0px) scaleY(1); }
 25% { transform: translateY(-0.5px) scaleY(1.04); }
 50% { transform: translateY(0.25px) scaleY(0.98); }
 75% { transform: translateY(-0.25px) scaleY(1.02); }
 100% { transform: translateY(0px) scaleY(1); }
}
@keyframes wiggle-10 {
  0% { transform: translateY(0px) scaleY(1); }
 25% { transform: translateY(-0.5px) scaleY(1.04); }
 50% { transform: translateY(0.25px) scaleY(0.98); }
 75% { transform: translateY(-0.25px) scaleY(1.02); }
 100% { transform: translateY(0px) scaleY(1); }
}
@keyframes wiggle-11 {
  0% { transform: translateY(0px) scaleY(1); }
 25% { transform: translateY(-1.2px) scaleY(1.04); }
 50% { transform: translateY(0.6px) scaleY(0.98); }
 75% { transform: translateY(-0.6px) scaleY(1.02); }
 100% { transform: translateY(0px) scaleY(1); }
}
@keyframes wiggle-12 {
  0% { transform: translateY(0px) scaleY(1); }
 25% { transform: translateY(-1.06px) scaleY(1.04); }
 50% { transform: translateY(0.53px) scaleY(0.98); }
 75% { transform: translateY(-0.53px) scaleY(1.02); }
 100% { transform: translateY(0px) scaleY(1); }
}
@keyframes wiggle-13 {
  0% { transform: translateY(0px) scaleY(1); }
 25% { transform: translateY(-0.36px) scaleY(1.04); }
 50% { transform: translateY(0.18px) scaleY(0.98); }
 75% { transform: translateY(-0.18px) scaleY(1.02); }
 100% { transform: translateY(0px) scaleY(1); }
}
@keyframes wiggle-14 {
  0% { transform: translateY(0px) scaleY(1); }
 25% { transform: translateY(-0.92px) scaleY(1.04); }
 50% { transform: translateY(0.46px) scaleY(0.98); }
 75% { transform: translateY(-0.46px) scaleY(1.02); }
 100% { transform: translateY(0px) scaleY(1); }
}
@keyframes wiggle-15 {
  0% { transform: translateY(0px) scaleY(1); }
 25% { transform: translateY(-0.64px) scaleY(1.04); }
 50% { transform: translateY(0.32px) scaleY(0.98); }
 75% { transform: translateY(-0.32px) scaleY(1.02); }
 100% { transform: translateY(0px) scaleY(1); }
}
@keyframes wiggle-16 {
  0% { transform: translateY(0px) scaleY(1); }
 25% { transform: translateY(-0.64px) scaleY(1.04); }
 50% { transform: translateY(0.32px) scaleY(0.98); }
 75% { transform: translateY(-0.32px) scaleY(1.02); }
 100% { transform: translateY(0px) scaleY(1); }
}
@keyframes wiggle-17 {
  0% { transform: translateY(0px) scaleY(1); }
 25% { transform: translateY(-0.5px) scaleY(1.04); }
 50% { transform: translateY(0.25px) scaleY(0.98); }
 75% { transform: translateY(-0.25px) scaleY(1.02); }
 100% { transform: translateY(0px) scaleY(1); }
}
@keyframes wiggle-18 {
  0% { transform: translateY(0px) scaleY(1); }
 25% { transform: translateY(-1.06px) scaleY(1.04); }
 50% { transform: translateY(0.53px) scaleY(0.98); }
 75% { transform: translateY(-0.53px) scaleY(1.02); }
 100% { transform: translateY(0px) scaleY(1); }
}
@keyframes wiggle-19 {
  0% { transform: translateY(0px) scaleY(1); }
 25% { transform: translateY(-0.36px) scaleY(1.04); }
 50% { transform: translateY(0.18px) scaleY(0.98); }
 75% { transform: translateY(-0.18px) scaleY(1.02); }
 100% { transform: translateY(0px) scaleY(1); }
}
@keyframes wiggle-20 {
  0% { transform: translateY(0px) scaleY(1); }
 25% { transform: translateY(-1.2px) scaleY(1.04); }
 50% { transform: translateY(0.6px) scaleY(0.98); }
 75% { transform: translateY(-0.6px) scaleY(1.02); }
 100% { transform: translateY(0px) scaleY(1); }
}
@keyframes wiggle-21 {
  0% { transform: translateY(0px) scaleY(1); }
 25% { transform: translateY(-0.78px) scaleY(1.04); }
 50% { transform: translateY(0.39px) scaleY(0.98); }
 75% { transform: translateY(-0.39px) scaleY(1.02); }
 100% { transform: translateY(0px) scaleY(1); }
}
@keyframes wiggle-22 {
  0% { transform: translateY(0px) scaleY(1); }
 25% { transform: translateY(-0.22px) scaleY(1.04); }
 50% { transform: translateY(0.11px) scaleY(0.98); }
 75% { transform: translateY(-0.11px) scaleY(1.02); }
 100% { transform: translateY(0px) scaleY(1); }
}
</style><rect x="0" y="0" width="400" height="100" fill="#f4dc31" />\n<rect x="100.00" y="44.50" width="6.71" height="11.00" rx="3.36" ry="3.36" fill="#000000" class="bar bar-0" style="animation-name:wiggle-0;animation-duration:2.5s;animation-timing-function:ease-in-out;animation-iteration-count:infinite;animation-delay:0.0s;animation-direction:alternate;animation-fill-mode:both;" />\n<rect x="112.42" y="23.50" width="6.71" height="53.00" rx="3.36" ry="3.36" fill="#000000" class="bar bar-1" style="animation-name:wiggle-1;animation-duration:2.5s;animation-timing-function:ease-in-out;animation-iteration-count:infinite;animation-delay:0.06s;animation-direction:alternate;animation-fill-mode:both;" />\n<rect x="124.84" y="34.00" width="6.71" height="32.00" rx="3.36" ry="3.36" fill="#000000" class="bar bar-2" style="animation-name:wiggle-2;animation-duration:2.5s;animation-timing-function:ease-in-out;animation-iteration-count:infinite;animation-delay:0.12s;animation-direction:alternate;animation-fill-mode:both;" />\n<rect x="137.27" y="20.00" width="6.71" height="60.00" rx="3.36" ry="3.36" fill="#000000" class="bar bar-3" style="animation-name:wiggle-3;animation-duration:2.5s;animation-timing-function:ease-in-out;animation-iteration-count:infinite;animation-delay:0.18s;animation-direction:alternate;animation-fill-mode:both;" />\n<rect x="149.69" y="23.50" width="6.71" height="53.00" rx="3.36" ry="3.36" fill="#000000" class="bar bar-4" style="animation-name:wiggle-4;animation-duration:2.5s;animation-timing-function:ease-in-out;animation-iteration-count:infinite;animation-delay:0.24s;animation-direction:alternate;animation-fill-mode:both;" />\n<rect x="162.11" y="41.00" width="6.71" height="18.00" rx="3.36" ry="3.36" fill="#000000" class="bar bar-5" style="animation-name:wiggle-5;animation-duration:2.5s;animation-timing-function:ease-in-out;animation-iteration-count:infinite;animation-delay:0.3s;animation-direction:alternate;animation-fill-mode:both;" />\n<rect x="174.53" y="27.00" width="6.71" height="46.00" rx="3.36" ry="3.36" fill="#000000" class="bar bar-6" style="animation-name:wiggle-6;animation-duration:2.5s;animation-timing-function:ease-in-out;animation-iteration-count:infinite;animation-delay:0.36s;animation-direction:alternate;animation-fill-mode:both;" />\n<rect x="186.96" y="34.00" width="6.71" height="32.00" rx="3.36" ry="3.36" fill="#000000" class="bar bar-7" style="animation-name:wiggle-7;animation-duration:2.5s;animation-timing-function:ease-in-out;animation-iteration-count:infinite;animation-delay:0.42s;animation-direction:alternate;animation-fill-mode:both;" />\n<rect x="199.38" y="44.50" width="6.71" height="11.00" rx="3.36" ry="3.36" fill="#000000" class="bar bar-8" style="animation-name:wiggle-8;animation-duration:2.5s;animation-timing-function:ease-in-out;animation-iteration-count:infinite;animation-delay:0.48s;animation-direction:alternate;animation-fill-mode:both;" />\n<rect x="211.80" y="37.50" width="6.71" height="25.00" rx="3.36" ry="3.36" fill="#000000" class="bar bar-9" style="animation-name:wiggle-9;animation-duration:2.5s;animation-timing-function:ease-in-out;animation-iteration-count:infinite;animation-delay:0.54s;animation-direction:alternate;animation-fill-mode:both;" />\n<rect x="224.22" y="37.50" width="6.71" height="25.00" rx="3.36" ry="3.36" fill="#000000" class="bar bar-10" style="animation-name:wiggle-10;animation-duration:2.5s;animation-timing-function:ease-in-out;animation-iteration-count:infinite;animation-delay:0.6s;animation-direction:alternate;animation-fill-mode:both;" />\n<rect x="236.64" y="20.00" width="6.71" height="60.00" rx="3.36" ry="3.36" fill="#000000" class="bar bar-11" style="animation-name:wiggle-11;animation-duration:2.5s;animation-timing-function:ease-in-out;animation-iteration-count:infinite;animation-delay:0.66s;animation-direction:alternate;animation-fill-mode:both;" />\n<rect x="249.07" y="23.50" width="6.71" height="53.00" rx="3.36" ry="3.36" fill="#000000" class="bar bar-12" style="animation-name:wiggle-12;animation-duration:2.5s;animation-timing-function:ease-in-out;animation-iteration-count:infinite;animation-delay:0.72s;animation-direction:alternate;animation-fill-mode:both;" />\n<rect x="261.49" y="41.00" width="6.71" height="18.00" rx="3.36" ry="3.36" fill="#000000" class="bar bar-13" style="animation-name:wiggle-13;animation-duration:2.5s;animation-timing-function:ease-in-out;animation-iteration-count:infinite;animation-delay:0.78s;animation-direction:alternate;animation-fill-mode:both;" />\n<rect x="273.91" y="27.00" width="6.71" height="46.00" rx="3.36" ry="3.36" fill="#000000" class="bar bar-14" style="animation-name:wiggle-14;animation-duration:2.5s;animation-timing-function:ease-in-out;animation-iteration-count:infinite;animation-delay:0.84s;animation-direction:alternate;animation-fill-mode:both;" />\n<rect x="286.33" y="34.00" width="6.71" height="32.00" rx="3.36" ry="3.36" fill="#000000" class="bar bar-15" style="animation-name:wiggle-15;animation-duration:2.5s;animation-timing-function:ease-in-out;animation-iteration-count:infinite;animation-delay:0.9s;animation-direction:alternate;animation-fill-mode:both;" />\n<rect x="298.76" y="34.00" width="6.71" height="32.00" rx="3.36" ry="3.36" fill="#000000" class="bar bar-16" style="animation-name:wiggle-16;animation-duration:2.5s;animation-timing-function:ease-in-out;animation-iteration-count:infinite;animation-delay:0.96s;animation-direction:alternate;animation-fill-mode:both;" />\n<rect x="311.18" y="37.50" width="6.71" height="25.00" rx="3.36" ry="3.36" fill="#000000" class="bar bar-17" style="animation-name:wiggle-17;animation-duration:2.5s;animation-timing-function:ease-in-out;animation-iteration-count:infinite;animation-delay:1.02s;animation-direction:alternate;animation-fill-mode:both;" />\n<rect x="323.60" y="23.50" width="6.71" height="53.00" rx="3.36" ry="3.36" fill="#000000" class="bar bar-18" style="animation-name:wiggle-18;animation-duration:2.5s;animation-timing-function:ease-in-out;animation-iteration-count:infinite;animation-delay:1.08s;animation-direction:alternate;animation-fill-mode:both;" />\n<rect x="336.02" y="41.00" width="6.71" height="18.00" rx="3.36" ry="3.36" fill="#000000" class="bar bar-19" style="animation-name:wiggle-19;animation-duration:2.5s;animation-timing-function:ease-in-out;animation-iteration-count:infinite;animation-delay:1.14s;animation-direction:alternate;animation-fill-mode:both;" />\n<rect x="348.44" y="20.00" width="6.71" height="60.00" rx="3.36" ry="3.36" fill="#000000" class="bar bar-20" style="animation-name:wiggle-20;animation-duration:2.5s;animation-timing-function:ease-in-out;animation-iteration-count:infinite;animation-delay:1.2s;animation-direction:alternate;animation-fill-mode:both;" />\n<rect x="360.87" y="30.50" width="6.71" height="39.00" rx="3.36" ry="3.36" fill="#000000" class="bar bar-21" style="animation-name:wiggle-21;animation-duration:2.5s;animation-timing-function:ease-in-out;animation-iteration-count:infinite;animation-delay:1.26s;animation-direction:alternate;animation-fill-mode:both;" />\n<rect x="373.29" y="44.50" width="6.71" height="11.00" rx="3.36" ry="3.36" fill="#000000" class="bar bar-22" style="animation-name:wiggle-22;animation-duration:2.5s;animation-timing-function:ease-in-out;animation-iteration-count:infinite;animation-delay:1.32s;animation-direction:alternate;animation-fill-mode:both;" />\n<svg width="100" height="134" viewBox="0 0 158 134" fill="none" transform="translate(4,-15)">
<g filter="url(#filter0_d_799_2)">
<path d="M148.195 119.446C149.385 118.169 151.469 118.176 152.852 119.463C154.234 120.75 154.39 122.828 153.201 124.105C152.012 125.383 149.927 125.376 148.545 124.089C147.163 122.802 147.006 120.724 148.195 119.446ZM138.502 108.909C140.281 106.999 143.399 107.01 145.466 108.935C147.533 110.859 147.767 113.968 145.988 115.879C144.21 117.789 141.092 117.778 139.024 115.854C136.957 113.929 136.723 110.82 138.502 108.909ZM66.4688 0.314453C70.8281 -0.103032 75.2175 -0.105238 79.5771 0.308594L90.7227 1.36719C120.168 4.16225 142.66 28.8898 142.66 58.4678C142.66 68.7418 139.946 78.427 135.173 86.8115C133.02 93.7569 139.987 102.243 137.151 106.853C134.225 111.609 124.279 103.029 115.233 107.405C107.896 111.9 99.4476 114.8 90.3467 115.604L79.1221 116.595C75.064 116.953 70.9816 116.951 66.9238 116.59L56.3115 115.645C26.6989 113.007 4.00009 88.1966 4 58.4668C4 28.8831 26.4828 4.14366 55.9316 1.32324L66.4688 0.314453ZM92.0264 67.0938C90.8983 66.438 89.6256 66.3067 88.209 66.7002C86.7923 67.0937 85.7298 67.803 85.0215 68.8262C84.4706 69.6132 84.0246 70.7153 83.6836 72.1318C83.3688 73.5484 83.1715 74.7817 83.0928 75.8311C83.0403 76.8804 83.0018 78.1137 82.9756 79.5303C82.9494 80.9464 82.9356 81.6678 82.9355 81.6943C82.8831 82.5601 82.8308 83.6097 82.7783 84.8428C82.7521 86.0496 82.7255 86.9286 82.6992 87.4795C82.673 88.0042 82.595 88.6732 82.4639 89.4863C82.3327 90.2734 82.1226 91.0212 81.834 91.7295C81.5716 92.4116 81.1909 93.186 80.6924 94.0518C79.9054 95.4946 79.4989 96.8719 79.4727 98.1836C79.4464 99.4691 79.7611 100.466 80.417 101.175C81.0728 101.883 81.9125 102.171 82.9355 102.04C84.2998 101.909 85.3888 101.279 86.2021 100.151C87.0417 98.997 87.4876 97.7245 87.54 96.334C87.5925 94.8911 87.5274 93.3432 87.3438 91.6904C87.1864 90.012 87.1203 89.0411 87.1465 88.7783C87.1727 87.9913 87.3434 87.3875 87.6582 86.9678C87.9993 86.5218 88.38 86.286 88.7998 86.2598C89.2457 86.2336 89.6652 86.2859 90.0586 86.417C90.4519 86.5219 90.7669 86.679 91.0029 86.8887C91.9999 87.9119 92.2495 90.3129 91.751 94.0908C91.5673 95.1927 91.5407 96.1111 91.6719 96.8457C91.8293 97.554 92.0266 98.1312 92.2627 98.5771C92.525 98.9968 92.8527 99.2988 93.2461 99.4824C93.6659 99.6661 94.0466 99.7706 94.3877 99.7969C94.7549 99.8231 95.122 99.7836 95.4893 99.6787C96.4862 99.4164 97.2606 98.6686 97.8115 97.4355C98.3624 96.1763 98.612 94.7724 98.5596 93.2246C98.5071 91.9128 98.2309 89.9713 97.7324 87.4004C97.2603 84.8036 97.0116 83.1509 96.9854 82.4424C96.9329 81.3143 96.8145 80.0811 96.6309 78.7432C96.4734 77.3789 96.211 75.8963 95.8438 74.2959C95.5027 72.6693 94.9907 71.2004 94.3086 69.8887C93.6527 68.5769 92.8921 67.6447 92.0264 67.0938ZM111.088 91.1318C110.216 91.1269 109.455 91.3881 108.807 91.9141C108.188 92.4172 107.783 93.0007 107.593 93.6641C107.429 94.3306 107.475 95.0107 107.73 95.7041C108.012 96.401 108.518 96.902 109.246 97.2061C109.594 97.3824 110.136 97.4908 110.871 97.5312C111.632 97.575 112.342 97.5061 112.999 97.3252C113.497 97.1504 113.921 96.8341 114.271 96.376C114.649 95.8952 114.861 95.3668 114.908 94.791C114.981 94.2185 114.933 93.6567 114.765 93.1064C114.6 92.5301 114.197 92.0558 113.557 91.6836C112.916 91.3114 112.093 91.1272 111.088 91.1318ZM57.5303 73.2285C56.5071 73.176 55.6144 73.4384 54.8535 74.0156C54.0929 74.5665 53.6734 75.3273 53.5947 76.2979C53.5947 77.4259 53.5819 78.0819 53.5557 78.2656C53.5557 78.4493 53.608 78.8952 53.7129 79.6035C53.844 80.3115 53.9091 80.7576 53.9092 80.9414C53.9617 81.2825 54.0672 81.8467 54.2246 82.6338C54.4083 83.3946 54.5523 84.0772 54.6572 84.6807C54.7883 85.2839 54.8802 86.0183 54.9326 86.8838C54.9851 87.7233 54.92 88.4059 54.7363 88.9307C54.6314 89.3242 54.5653 89.7178 54.5391 90.1113C54.3293 92.0526 54.9724 93.2592 56.4678 93.7314C57.727 94.0986 58.9731 93.8886 60.2061 93.1016C61.5177 92.262 62.016 91.1867 61.7012 89.875C61.5175 89.1405 61.3084 88.3926 61.0723 87.6318C60.8624 86.871 60.6917 86.3068 60.5605 85.9395C60.4294 85.546 60.2982 85.0476 60.167 84.4443C60.0358 83.8147 59.9835 83.3027 60.0098 82.9092C60.036 82.4894 60.0745 81.8598 60.127 81.0205C60.363 79.4203 60.4548 78.043 60.4023 76.8887C60.3499 75.5769 60.0884 74.6447 59.6162 74.0938C59.144 73.5429 58.4484 73.2548 57.5303 73.2285ZM76.3896 64.4219C74.9992 64.3169 73.5559 64.7363 72.0605 65.6807C70.5913 66.5989 69.5023 67.7274 68.7939 69.0654C68.0069 70.5083 67.3509 72.2003 66.8262 74.1416C66.3277 76.0568 66.0002 78.0771 65.8428 80.2021C65.7116 82.301 65.8684 84.3084 66.3145 86.2236C66.8654 88.5586 67.8499 90.4605 69.2666 91.9297C70.7094 93.3987 72.4144 94.0025 74.3818 93.7402C76.1134 93.4779 77.596 92.9265 78.8291 92.0869C80.0621 91.2474 80.8888 90.1326 81.3086 88.7422C81.7808 87.2992 81.8331 85.9083 81.4658 84.5703C81.1247 83.2062 80.4421 82.3932 79.4189 82.1309C76.9268 81.4752 75.6155 82.6954 75.4844 85.791C75.4319 86.8402 75.2089 87.6011 74.8154 88.0732C74.4219 88.5193 74.0017 88.7156 73.5557 88.6631C73.1359 88.5844 72.7551 88.3614 72.4141 87.9941C71.7321 87.2596 71.2466 86.184 70.958 84.7676C70.6694 83.3246 70.5777 81.842 70.6826 80.3203C70.8138 78.7725 71.0506 77.3035 71.3916 75.9131C71.7327 74.5226 72.2042 73.4069 72.8076 72.5674C73.411 71.7279 74.0542 71.3737 74.7363 71.5049C75.1561 71.5836 75.4185 71.8203 75.5234 72.2139C75.6545 72.6073 75.6812 73.0139 75.6025 73.4336C75.5501 73.8533 75.6152 74.2864 75.7988 74.7324C75.9825 75.1521 76.3239 75.4541 76.8223 75.6377C77.478 75.8213 78.0425 75.8993 78.5146 75.873C79.0129 75.8205 79.4325 75.6241 79.7734 75.2832C80.1144 74.9423 80.3898 74.575 80.5996 74.1816C80.8357 73.7881 81.0064 73.3413 81.1113 72.8428C81.2425 72.3182 81.3214 71.8593 81.3477 71.4658C81.4001 71.0724 81.4267 70.7052 81.4268 70.3643C81.4005 68.554 80.9152 67.1365 79.9707 66.1133C79.0526 65.0902 77.8586 64.5269 76.3896 64.4219ZM48.7197 64.4121C47.6967 64.3596 46.8047 64.6479 46.0439 65.2773C45.3093 65.907 44.7451 66.6814 44.3516 67.5996C43.958 68.5178 43.6039 69.4363 43.2891 70.3545C43.0005 71.2725 42.6857 72.0462 42.3447 72.6758C42.0299 73.3054 41.662 73.6073 41.2422 73.5811C41.0849 73.5548 40.9407 73.5153 40.8096 73.4629C40.6784 73.4104 40.5472 73.3058 40.416 73.1484C40.3112 72.9912 40.2193 72.8469 40.1406 72.7158C40.0619 72.5846 39.9564 72.3745 39.8252 72.0859C39.7203 71.7973 39.6285 71.5606 39.5498 71.377C39.4711 71.1671 39.3536 70.8521 39.1963 70.4326C39.0652 70.0131 38.9467 69.6724 38.8418 69.4102C38.3958 68.2033 37.7921 67.2583 37.0312 66.5762C36.2704 65.8942 35.3519 65.5922 34.2764 65.6709C33.4633 65.7497 32.729 66.1829 32.0732 66.9697C31.4173 67.7306 31.0889 68.7801 31.0889 70.1182C31.0889 70.433 31.1155 71.102 31.168 72.125C31.2204 73.122 31.2461 73.9486 31.2461 74.6045C31.2723 75.2341 31.2467 75.9819 31.168 76.8477C31.063 77.3985 30.9189 78.1723 30.7354 79.1689C30.578 80.1657 30.4724 80.8613 30.4199 81.2549C30.3675 81.6222 30.2885 82.2525 30.1836 83.1445C30.1049 84.0362 30.1187 84.6788 30.2236 85.0723C30.4335 87.4072 30.9189 89.1256 31.6797 90.2275C32.4405 91.3032 33.3717 91.8546 34.4736 91.8809C35.9165 91.9595 36.979 91.3558 37.6611 90.0703C38.3432 88.7848 38.5011 87.0792 38.1338 84.9541C38.0026 84.2458 37.8181 83.4722 37.582 82.6328C37.3721 81.767 37.1758 81.045 36.9922 80.4678C36.8348 79.8645 36.6907 79.2872 36.5596 78.7363C36.4547 78.1854 36.428 77.7395 36.4805 77.3984C36.5592 77.0574 36.717 76.8216 36.9531 76.6904C37.3204 76.5069 37.6351 76.7693 37.8975 77.4775C38.1859 78.1595 38.409 78.9857 38.5664 79.9561C38.75 80.9005 39.0648 81.7667 39.5107 82.5537C39.9568 83.3408 40.5082 83.7077 41.1641 83.6553C41.846 83.6026 42.4096 83.1044 42.8555 82.1602C43.3014 81.1895 43.6171 80.1535 43.8008 79.0518C44.0106 77.9238 44.3116 76.9134 44.7051 76.0215C45.0986 75.1296 45.5712 74.7222 46.1221 74.8008C46.6729 74.8532 46.9096 75.2471 46.8311 75.9814C46.7786 76.6373 46.1749 78.5402 45.0205 81.6885C44.6533 82.7376 44.4303 83.6949 44.3516 84.5605C44.2991 85.4262 44.3781 86.1346 44.5879 86.6855C44.824 87.2364 45.0855 87.6962 45.374 88.0635C45.6889 88.4045 46.044 88.6798 46.4375 88.8896C47.0671 89.2306 47.7361 89.3619 48.4443 89.2832C49.1788 89.2045 49.8478 88.9943 50.4512 88.6533C51.0807 88.3123 51.6057 87.8011 52.0254 87.1191C52.4714 86.4371 52.7338 85.6892 52.8125 84.876C52.9174 83.5117 52.7734 81.8584 52.3799 79.917C51.9864 77.9756 51.8157 76.047 51.8682 74.1318C51.8944 73.2137 51.8806 72.2951 51.8281 71.377C51.7756 70.4326 51.6582 69.3965 51.4746 68.2686C51.291 67.1404 50.9625 66.222 50.4902 65.5137C50.018 64.7792 49.428 64.4122 48.7197 64.4121ZM115.407 70.8545C113.943 70.7216 112.565 70.85 111.272 71.2412C109.925 71.6519 108.893 72.4863 108.178 73.7441C107.427 75.0769 107.312 76.293 107.834 77.3906C108.443 78.6313 109.685 78.96 111.557 78.3779C112.269 78.1776 112.984 77.9646 113.7 77.7383C114.469 77.5185 115.019 77.5616 115.351 77.8682C115.711 78.1519 115.842 78.5785 115.743 79.1475C115.648 79.6907 115.346 80.0889 114.838 80.3418C114.753 80.3839 114.38 80.5089 113.72 80.7158C113.085 80.9261 112.439 81.2146 111.784 81.5811C111.156 81.9508 110.549 82.4559 109.966 83.0957C109.258 83.8785 108.812 84.787 108.628 85.8213C108.473 86.833 108.648 87.7542 109.15 88.585C109.657 89.3897 110.441 89.8737 111.505 90.0352C112.748 90.2458 113.645 90.1609 114.195 89.7812C114.746 89.4015 115.04 88.7508 115.077 87.8301C115.152 86.2002 115.247 85.2472 115.361 84.9707C115.401 84.8699 115.438 84.7818 115.474 84.707C115.536 84.6356 115.596 84.5767 115.654 84.5312C115.716 84.4598 115.805 84.392 115.919 84.3271C116.033 84.2624 116.119 84.2075 116.178 84.1621C116.266 84.0939 116.394 84.0169 116.563 83.9326C116.759 83.8517 116.912 83.7918 117.022 83.7529C117.136 83.6881 117.32 83.6063 117.57 83.5059C117.847 83.4088 118.07 83.3177 118.239 83.2334C119.584 82.6372 120.559 81.6239 121.164 80.1934C121.772 78.7367 121.907 77.2592 121.568 75.7617C121.259 74.2414 120.559 73.0816 119.471 72.2822C118.226 71.4631 116.871 70.9875 115.407 70.8545ZM101.803 67.0791C100.78 67.0267 99.8877 67.2891 99.127 67.8662C98.3662 68.4171 97.946 69.1779 97.8672 70.1484C97.8672 71.2758 97.8543 71.9321 97.8281 72.1162C97.8281 72.2999 97.8804 72.7467 97.9854 73.4551C98.1165 74.1632 98.1826 74.6094 98.1826 74.793C98.2351 75.134 98.3398 75.6978 98.4971 76.4844C98.6807 77.2452 98.8247 77.9278 98.9297 78.5312C99.0609 79.1347 99.1536 79.8696 99.2061 80.7354C99.2585 81.5747 99.1924 82.2566 99.0088 82.7812C98.9039 83.1747 98.8387 83.5684 98.8125 83.9619C98.6026 85.9034 99.2448 87.1108 100.74 87.583C101.999 87.9503 103.246 87.74 104.479 86.9531C105.79 86.1136 106.289 85.0374 105.975 83.7256C105.791 82.9911 105.581 82.2432 105.345 81.4824C105.135 80.722 104.964 80.1583 104.833 79.791C104.702 79.3975 104.571 78.8983 104.439 78.2949C104.308 77.6656 104.256 77.1542 104.282 76.7607C104.308 76.341 104.348 75.7106 104.4 74.8711C104.636 73.2708 104.728 71.8936 104.676 70.7393C104.623 69.4276 104.361 68.4963 103.889 67.9453C103.416 67.3944 102.721 67.1053 101.803 67.0791ZM88.7207 73.0762C89.3503 72.053 89.9798 72.1578 90.6094 73.3906C91.2915 74.7811 91.6328 76.539 91.6328 78.6641C91.6328 80.1333 90.8851 81.1957 89.3896 81.8516C88.8388 82.1663 88.3405 82.2323 87.8945 82.0488C87.4486 81.8652 87.2513 81.3796 87.3037 80.5928C87.3037 80.5141 87.3175 80.2379 87.3438 79.7656C87.37 79.2677 87.3828 78.9268 87.3828 78.7432C87.409 78.5595 87.4357 78.231 87.4619 77.7588C87.5144 77.2867 87.5529 76.9324 87.5791 76.6963C87.6316 76.434 87.6977 76.1063 87.7764 75.7129C87.8551 75.2931 87.934 74.9518 88.0127 74.6895C88.0914 74.4272 88.1832 74.1518 88.2881 73.8633C88.4192 73.5486 88.5633 73.286 88.7207 73.0762ZM57.2939 66.6172C56.8479 66.5385 56.4543 66.5385 56.1133 66.6172C54.9851 66.7484 54.1713 67.1025 53.6729 67.6797C53.1746 68.2567 52.913 68.8864 52.8867 69.5684C52.8605 70.4079 53.1752 71.0373 53.8311 71.457C54.5131 71.8768 55.3261 72.0346 56.2705 71.9297C57.7397 71.7723 58.7242 71.4704 59.2227 71.0244C59.7472 70.5522 60.0098 69.975 60.0098 69.293C60.0098 68.6633 59.8648 68.1385 59.5762 67.7188C59.2876 67.2991 58.9462 67.0237 58.5527 66.8926C58.1593 66.7615 57.7398 66.6696 57.2939 66.6172ZM101.566 60.4678C101.121 60.3891 100.727 60.3891 100.386 60.4678C99.2579 60.599 98.4447 60.9532 97.9463 61.5303C97.4479 62.1073 97.1855 62.737 97.1592 63.4189C97.1329 64.2585 97.4476 64.8888 98.1035 65.3086C98.7856 65.7284 99.5995 65.8852 100.544 65.7803C102.013 65.6229 102.997 65.3218 103.495 64.876C104.02 64.4037 104.282 63.8257 104.282 63.1436C104.282 62.5141 104.138 61.989 103.85 61.5693C103.561 61.1497 103.22 60.8743 102.826 60.7432C102.433 60.612 102.012 60.5202 101.566 60.4678ZM25.5664 41.7285C24.8472 41.1985 23.9481 41.0481 22.8701 41.2773C21.633 41.5174 20.8205 41.8993 20.4326 42.4229C20.0641 42.9149 20.0029 43.5635 20.248 44.3682C20.709 45.7411 20.9443 46.5614 20.9541 46.8291C20.9468 46.9116 20.9263 46.9974 20.8936 47.0859C20.8607 47.1746 20.8251 47.2513 20.7861 47.3145C20.7727 47.3715 20.7235 47.4501 20.6396 47.5508C20.5558 47.6516 20.4824 47.7374 20.418 47.8066C20.3535 47.8759 20.2568 47.9797 20.1279 48.1182C19.993 48.2311 19.8701 48.3404 19.7607 48.4473C19.6708 48.5226 19.5265 48.6518 19.3271 48.834C19.1217 48.9906 18.9541 49.1379 18.8252 49.2764C17.7322 50.2372 17.1389 51.4302 17.0459 52.8545C16.9468 54.2533 17.3044 55.5306 18.1182 56.6855C18.9003 57.8209 19.9357 58.5452 21.2236 58.8594C22.6844 59.1055 24.1237 59.0333 25.541 58.6426C26.9582 58.2519 28.1997 57.6877 29.2646 56.9492C30.3684 56.1476 31.0578 55.1341 31.333 53.9092C31.6484 52.5129 31.3933 51.4412 30.5684 50.6934C29.5734 49.7972 28.2673 49.9183 26.6504 51.0576C26.073 51.4644 25.4865 51.8878 24.8896 52.3262C24.2101 52.7573 23.6541 52.916 23.2227 52.8027C22.8108 52.6579 22.5604 52.3396 22.4707 51.8486C22.4066 51.3516 22.5576 50.9112 22.9248 50.5273C23.0148 50.452 23.3259 50.2296 23.8584 49.8604C24.3848 49.4656 24.8965 49.0067 25.3926 48.4844C25.8824 47.9366 26.2839 47.3017 26.5977 46.5801C27.0283 45.6688 27.1506 44.7637 26.9639 43.8643C26.7771 42.9648 26.3112 42.2527 25.5664 41.7285ZM69.5537 34.3359C68.0845 34.2048 66.5101 34.6507 64.8311 35.6738C63.4931 36.5396 62.5095 38.0353 61.8799 40.1602C61.2765 42.259 61.0664 44.5288 61.25 46.9688C61.4599 49.4087 62.0241 51.5867 62.9424 53.502C63.7819 55.2858 64.9628 56.597 66.4844 57.4365C68.0322 58.276 69.6847 58.5384 71.4424 58.2236C72.0195 58.1449 72.5839 57.988 73.1348 57.752C73.6857 57.5158 74.2372 57.2011 74.7881 56.8076C75.3389 56.3879 75.7978 55.8629 76.165 55.2334C76.5585 54.5776 76.8081 53.8296 76.9131 52.9902C76.9918 52.2556 76.8734 51.5858 76.5586 50.9824C76.2438 50.3531 75.8243 49.894 75.2998 49.6055C74.8014 49.3169 74.2241 49.2252 73.5684 49.3301C72.9388 49.435 72.3744 49.7627 71.876 50.3135C70.6691 51.704 69.5929 52.1637 68.6484 51.6914C68.1764 51.4816 67.8359 51.1271 67.626 50.6289C67.4423 50.1043 67.4552 49.6188 67.665 49.1729C67.8749 48.7006 68.2813 48.4244 68.8848 48.3457C70.5112 48.1358 71.7178 47.8734 72.5049 47.5586C73.3182 47.2175 74.0274 46.6276 74.6309 45.7881C75.0243 45.1847 75.2868 44.5157 75.418 43.7812C75.5753 43.0207 75.6276 42.391 75.5752 41.8926C75.549 41.3941 75.47 40.7638 75.3389 40.0029C75.1027 38.4552 74.4466 37.1568 73.3711 36.1074C72.3217 35.058 71.0492 34.4671 69.5537 34.3359ZM36.9287 25.209C35.6696 24.9467 34.5546 25.0128 33.584 25.4062C32.6395 25.7736 31.8 26.3378 31.0654 27.0986C30.5145 27.702 30.1081 28.4104 29.8457 29.2236C29.6096 30.0368 29.4913 30.8105 29.4912 31.5449V34.2998C29.4912 35.3754 29.4251 36.2939 29.2939 37.0547C28.6643 41.2786 28.7955 44.4797 29.6875 46.6572C30.1335 47.6804 30.8428 48.586 31.8135 49.373C32.7841 50.1599 33.8468 50.684 35.001 50.9463C35.0534 52.7563 35.4729 54.2521 36.2598 55.4326C37.1518 56.7182 38.2931 57.5586 39.6836 57.9521C41.0741 58.3457 42.0842 58.1218 42.7139 57.2822C43.3434 56.4165 43.4619 55.5246 43.0684 54.6064C42.7011 53.6621 41.9403 53.0583 40.7861 52.7959C39.8154 52.6123 39.0677 51.8911 38.543 50.6318C38.9363 50.4482 39.3036 50.2123 39.6445 49.9238C40.6677 49.0581 41.4806 48.1525 42.084 47.208C42.6874 46.2635 43.1343 44.9782 43.4229 43.3516C43.7377 41.6988 43.8028 39.7049 43.6191 37.3701C43.4093 34.5104 43.0946 32.3452 42.6748 30.876C42.2813 29.4069 41.5858 28.2003 40.5889 27.2559C39.4345 26.154 38.2143 25.4713 36.9287 25.209ZM120.978 35.8262C119.964 35.676 119.051 35.8518 118.238 36.3535C117.428 36.8291 116.938 37.5462 116.767 38.5049C116.659 39.6277 116.583 40.2797 116.539 40.46C116.522 40.643 116.531 41.092 116.567 41.8066C116.63 42.5242 116.653 42.9744 116.636 43.1572C116.655 43.5017 116.706 44.0735 116.787 44.8721C116.897 45.6469 116.976 46.3396 117.022 46.9502C117.095 47.5633 117.116 48.3033 117.085 49.1699C117.057 50.0106 116.926 50.6837 116.693 51.1885C116.551 51.5701 116.449 51.9556 116.385 52.3447C115.99 54.2572 116.515 55.5196 117.958 56.1328C119.176 56.6189 120.437 56.5296 121.739 55.8643C123.125 55.1541 123.725 54.1308 123.537 52.7949C123.425 52.0462 123.287 51.2818 123.125 50.502C122.989 49.7246 122.873 49.1467 122.777 48.7686C122.684 48.3643 122.602 47.8553 122.529 47.2422C122.459 46.6029 122.455 46.0884 122.519 45.6992C122.585 45.284 122.685 44.6613 122.817 43.8311C123.206 42.2608 123.429 40.8982 123.487 39.7441C123.561 38.4333 123.388 37.4803 122.971 36.8867C122.553 36.2933 121.889 35.9401 120.978 35.8262ZM60.2178 30.6279C59.4307 29.6574 58.4599 29.4077 57.3057 29.8799C56.2039 30.2996 55.5222 31.1789 55.2598 32.5166C55.1811 32.9101 55.0893 33.6975 54.9844 34.8779C54.8794 36.0322 54.6959 37.2131 54.4336 38.4199C54.1713 39.6267 53.7509 40.8728 53.1738 42.1582C52.7278 43.1552 52.2553 44.0607 51.7568 44.874C51.206 45.7134 50.6553 46.2511 50.1045 46.4873C49.5798 46.7234 49.1596 46.6711 48.8447 46.3301C48.53 45.9891 48.3731 45.4382 48.373 44.6777C48.3993 43.8907 48.8314 42.4603 49.6709 40.3877C50.5102 38.2893 50.97 37.1351 51.0488 36.9248C51.5998 35.1408 51.5337 33.7765 50.8516 32.832C50.1957 31.8876 49.1992 31.5463 47.8613 31.8086C46.6807 32.0447 45.9064 32.6218 45.5391 33.54C45.3292 34.1172 45.1723 34.6815 45.0674 35.2324C44.9625 35.7832 44.8964 36.334 44.8701 36.8848V40.8604C44.8701 41.4114 44.726 42.3951 44.4375 43.8115C44.1489 45.202 43.9911 46.4222 43.9648 47.4717C43.9649 48.4948 44.0961 49.4133 44.3584 50.2266C44.6207 51.0397 44.975 51.6693 45.4209 52.1152C45.8668 52.5612 46.3523 52.9154 46.877 53.1777C47.4279 53.4401 47.9922 53.5446 48.5693 53.4922C49.1728 53.4397 49.737 53.3085 50.2617 53.0986C50.7863 52.8625 51.259 52.5221 51.6787 52.0762C52.1247 51.604 52.4394 51.079 52.623 50.502C53.2265 48.7704 53.699 47.6153 54.04 47.0381C54.4073 46.435 54.8267 46.2256 55.2988 46.4092C55.4562 46.4616 55.4562 46.8022 55.2988 47.4316C55.1414 48.0613 54.9185 48.8623 54.6299 49.833C54.3414 50.8036 54.1706 51.5644 54.1182 52.1152C53.987 53.2433 54.2237 54.1095 54.8271 54.7129C55.4305 55.2898 56.1519 55.591 56.9912 55.6172C57.9357 55.6434 58.7101 55.2636 59.3135 54.4766C59.9431 53.6895 60.1523 52.6004 59.9424 51.21C59.8637 50.7115 59.7986 50.239 59.7461 49.793C59.7199 49.3471 59.6804 48.9533 59.6279 48.6123C59.6017 48.2451 59.5889 47.8255 59.5889 47.3535C59.6151 46.8814 59.6151 46.5271 59.5889 46.291C59.5889 46.0549 59.6283 45.6612 59.707 45.1104C59.7857 44.5333 59.8242 44.1396 59.8242 43.9297C59.8505 43.7198 59.9165 43.2473 60.0215 42.5127C60.1526 41.7783 60.2444 41.28 60.2969 41.0176C60.3493 40.7552 60.4539 40.1385 60.6113 39.168C60.795 38.1711 60.9262 37.4756 61.0049 37.082C61.5296 34.0649 61.2672 31.9135 60.2178 30.6279ZM99.1475 23.8643C97.0225 23.7593 94.8451 23.8511 92.6152 24.1396C90.4114 24.402 88.6792 24.8745 87.4199 25.5566C86.6067 26.0027 86.0167 26.6982 85.6494 27.6426C85.2822 28.5869 85.1243 29.6359 85.1768 30.79C85.2292 31.9444 85.3348 33.0078 85.4922 33.9785C85.6758 34.9228 85.9117 35.8278 86.2002 36.6934C86.5412 37.8214 86.7908 38.884 86.9482 39.8809C87.1057 40.8516 87.1579 41.7571 87.1055 42.5967C87.053 43.4362 86.9741 44.1317 86.8691 44.6826C86.7904 45.2335 86.6463 45.9155 86.4365 46.7285C86.2529 47.5154 86.1345 48.0926 86.082 48.46C86.0033 48.9322 85.9382 49.313 85.8857 49.6016C85.8333 49.8639 85.78 50.2704 85.7275 50.8213C85.6751 51.3458 85.6623 51.7919 85.6885 52.1592C85.7147 52.5002 85.7808 52.8939 85.8857 53.3398C85.9907 53.7858 86.1348 54.14 86.3184 54.4023C86.5282 54.6647 86.8164 54.9015 87.1836 55.1113C87.5771 55.295 88.024 55.3867 88.5225 55.3867C89.9914 55.4129 91.1064 55.111 91.8672 54.4814C92.6542 53.8518 93.0735 53.0251 93.126 52.002C93.1784 51.3724 93.1004 50.5592 92.8906 49.5625C92.6807 48.5393 92.4578 47.5943 92.2217 46.7285C92.0118 45.8628 91.8273 45.0233 91.6699 44.21C91.5388 43.3967 91.5654 42.7406 91.749 42.2422C91.9589 41.7176 92.3792 41.4294 93.0088 41.377C93.4549 41.3245 94.2947 41.285 95.5273 41.2588C96.7862 41.2325 97.7436 41.1536 98.3994 41.0225C98.5238 40.9996 98.6447 40.9719 98.7617 40.9404C98.6995 41.5996 98.6804 42.2559 98.7051 42.9092C98.7838 44.2734 99.0067 45.5065 99.374 46.6084C99.7413 47.7103 100.372 48.602 101.264 49.2842C102.156 49.9663 103.27 50.3076 104.608 50.3076C105.422 50.3076 106.091 50.1498 106.615 49.835C107.166 49.4939 107.52 49.1269 107.678 48.7334C107.861 48.3399 108.046 47.9857 108.229 47.6709C108.439 47.33 108.662 47.1592 108.898 47.1592C109.134 47.1593 109.318 47.2905 109.449 47.5527C109.58 47.8151 109.685 48.2353 109.764 48.8125C109.947 50.3078 110.472 51.3309 111.338 51.8818C112.309 52.459 113.135 52.603 113.817 52.3145C114.499 51.9996 114.998 51.4095 115.312 50.5439C115.627 49.652 115.68 48.7206 115.47 47.75C114.394 42.7127 114.342 38.0686 115.312 33.8184C115.47 33.0313 115.483 32.3625 115.352 31.8115C115.247 31.2606 115.024 30.8147 114.683 30.4736C114.342 30.1327 113.962 29.9097 113.542 29.8047C113.149 29.6736 112.742 29.6341 112.322 29.6865C111.902 29.7128 111.547 29.8302 111.259 30.04C110.97 30.2761 110.616 30.5652 110.196 30.9062C109.777 31.2472 109.462 31.4703 109.252 31.5752C109.068 31.68 108.819 31.7324 108.505 31.7324C108.321 31.7324 107.967 31.6011 107.442 31.3389C106.944 31.0766 106.458 30.9059 105.986 30.8271C105.514 30.7222 104.792 30.814 103.821 31.1025C102.772 31.4961 101.814 32.4539 100.948 33.9756C100.628 34.5279 100.345 35.0912 100.097 35.665C99.2891 35.1226 98.1335 34.94 96.6289 35.1191C94.6614 35.3815 93.4283 35.4475 92.9297 35.3164C92.4312 35.2115 92.1027 34.8702 91.9453 34.293C91.7879 33.6896 91.8412 33.073 92.1035 32.4434C92.3659 31.8137 92.7595 31.3935 93.2842 31.1836C94.2288 30.8426 96.0127 30.6196 98.6357 30.5146C99.9213 30.4622 100.944 30.1603 101.705 29.6094C102.492 29.0584 102.939 28.3502 103.044 27.4844C103.096 27.0648 103.083 26.6847 103.004 26.3438C102.925 25.9764 102.755 25.6085 102.492 25.2412C102.256 24.8479 101.849 24.5329 101.272 24.2969C100.722 24.0346 100.013 23.8905 99.1475 23.8643ZM68.373 39.8848C68.6879 39.8585 68.9897 39.9118 69.2783 40.043C69.5668 40.1479 69.7899 40.3967 69.9473 40.79C70.1047 41.1836 70.157 41.6955 70.1045 42.3252C70.052 42.9548 69.7896 43.4531 69.3174 43.8203C68.8452 44.1875 68.334 44.3316 67.7832 44.2529C67.2585 44.1742 66.8906 43.899 66.6807 43.4268C66.4184 42.666 66.3789 42.0099 66.5625 41.459C66.7462 40.8818 67.0618 40.4625 67.5078 40.2002C67.7701 40.0166 68.0583 39.911 68.373 39.8848ZM107.6 35.3135C108.334 35.3661 108.82 36.1534 109.056 37.6748C109.318 39.1965 109.2 40.6791 108.701 42.1221C108.465 42.8042 108.203 43.2895 107.914 43.5781C107.625 43.8404 107.245 44.0111 106.772 44.0898C106.117 44.1945 105.605 43.8533 105.238 43.0664C104.897 42.2532 104.753 41.2695 104.806 40.1152C104.858 38.9346 105.094 37.8584 105.514 36.8877C105.96 35.7597 106.655 35.2348 107.6 35.3135ZM35.04 31.2695C35.3549 30.4565 35.932 30.1554 36.7715 30.3652C37.0601 30.4439 37.3225 30.5485 37.5586 30.6797C37.7947 30.7846 37.992 30.9553 38.1494 31.1914C38.3066 31.4272 38.4243 31.624 38.5029 31.7812C38.6078 31.9124 38.6996 32.175 38.7783 32.5684C38.857 32.9357 38.9103 33.1852 38.9365 33.3164C38.9627 33.4215 38.9884 33.71 39.0146 34.1816C39.0671 34.6274 39.1066 34.877 39.1328 34.9297C39.2902 36.189 39.2636 37.4615 39.0537 38.7471C38.8438 40.0326 38.5163 41.0299 38.0703 41.7383C37.4145 42.7876 36.7318 43.2464 36.0234 43.1152C35.3154 42.9576 34.9353 42.2887 34.8828 41.1084C34.8566 40.7149 34.8299 39.7699 34.8037 38.2744C34.8037 36.7794 34.778 35.6909 34.7256 35.0088C34.6469 33.3035 34.7514 32.0566 35.04 31.2695ZM22.6816 34.5264C21.3133 34.555 20.1249 34.9455 19.1172 35.6973C18.7514 35.973 18.4831 36.3744 18.3115 36.9004C18.1595 37.3947 18.1435 37.897 18.2646 38.4072C18.386 38.9177 18.6036 39.3791 18.917 39.79C19.2304 40.2009 19.7396 40.4705 20.4443 40.5996C21.1686 40.6972 21.991 40.5833 22.9111 40.2568C23.7547 39.9485 24.3841 39.4748 24.7988 38.8369C25.2074 38.1736 25.3766 37.5262 25.3076 36.8955C25.2641 36.2588 24.9975 35.7021 24.5068 35.2256C24.0416 34.7429 23.4327 34.5097 22.6816 34.5264ZM121.375 29.2217C120.939 29.1007 120.547 29.0637 120.2 29.1094C119.065 29.132 118.221 29.4068 117.67 29.9336C117.118 30.4604 116.796 31.0618 116.705 31.7383C116.599 32.5715 116.852 33.2284 117.465 33.709C118.104 34.1921 118.898 34.4262 119.849 34.4121C121.326 34.396 122.334 34.1902 122.873 33.7939C123.44 33.3741 123.757 32.8244 123.822 32.1455C123.882 31.5188 123.789 30.9825 123.542 30.5371C123.295 30.0918 122.982 29.7855 122.603 29.6172C122.223 29.449 121.814 29.3166 121.375 29.2217ZM71.7578 26.4658C70.7346 26.0985 69.8813 26.282 69.1992 27.0166C69.1202 27.1219 68.8318 27.4497 68.334 28C67.8618 28.5247 67.2846 29.2202 66.6025 30.0859C65.9204 30.9517 65.4607 31.6077 65.2246 32.0537C64.8574 32.762 64.9629 33.2603 65.54 33.5488C66.1433 33.8373 66.8253 33.7593 67.5859 33.3135C68.2942 32.92 69.1734 32.3033 70.2227 31.4639C71.2721 30.6243 72.0593 29.9151 72.584 29.3379C72.9773 28.9183 73.1609 28.4858 73.1348 28.04C73.0823 27.3055 72.6234 26.7807 71.7578 26.4658Z" fill="#00020D" />
</g>
<defs>
<filter id="filter0_d_799_2" x="0" y="0" width="158" height="133.059" filterUnits="userSpaceOnUse" color-interpolation-filters="sRGB">
<feFlood flood-opacity="0" result="BackgroundImageFix" />
<feColorMatrix in="SourceAlpha" type="matrix" values="0 0 0 0 0 0 0 0 0 0 0 0 0 0 0 0 0 0 127 0" result="hardAlpha" />
<feOffset dy="4" />
<feGaussianBlur stdDeviation="2" />
<feComposite in2="hardAlpha" operator="out" />
<feColorMatrix type="matrix" values="0 0 0 0 0 0 0 0 0 0 0 0 0 0 0 0 0 0 0.25 0" />
<feBlend mode="normal" in2="BackgroundImageFix" result="effect1_dropShadow_799_2" />
<feBlend mode="normal" in="SourceGraphic" in2="effect1_dropShadow_799_2" result="shape" />
</filter>
</defs>
</svg>
</svg>